<?xml version="1.0" encoding="UTF-8" standalone="no"?>
<!DOCTYPE svg PUBLIC "-//W3C//DTD SVG 1.1//EN" "http://www.w3.org/Graphics/SVG/1.1/DTD/svg11.dtd">
<svg xmlns="http://www.w3.org/2000/svg" version="1.1" viewBox="0.00 0.00 625.00 399.00">
<path stroke="#186fb9" stroke-width="2.00" fill="none" stroke-linecap="butt" vector-effect="non-scaling-stroke" d="
  M 324.70 133.35
  L 324.96 149.45"
/>
<path fill="#fbec41" d="
  M 342.59 68.59
  Q 388.30 86.06 434.11 103.28
  Q 436.26 104.09 438.15 105.36
  A 0.05 0.05 0.0 0 1 438.11 105.44
  Q 377.01 85.50 316.39 66.03
  C 313.71 65.17 312.31 65.91 309.76 66.73
  Q 250.48 85.86 191.22 105.02
  Q 190.57 105.23 191.12 104.83
  Q 191.54 104.52 192.01 104.34
  Q 252.85 81.28 313.60 57.99
  Q 314.07 57.81 314.54 57.99
  Q 328.55 63.23 342.59 68.59
  Z"
/>
<path fill="#0f86cd" d="
  M 308.23 131.31
  L 304.81 127.92
  A 0.42 0.42 0.0 0 1 305.07 127.21
  Q 313.80 126.54 321.74 130.22
  Q 322.34 130.50 321.68 130.55
  Q 316.17 130.98 311.05 132.92
  Q 310.05 133.30 309.48 133.05
  Q 308.92 132.80 308.73 132.15
  Q 308.59 131.67 308.23 131.31
  Z"
/>
<path fill="#0f86cd" d="
  M 324.70 133.35
  L 324.96 149.45
  C 309.15 149.82 294.52 158.33 285.57 171.15
  C 280.69 178.14 281.77 181.76 283.57 189.43
  Q 283.69 189.92 283.21 189.78
  Q 276.21 187.79 269.21 189.71
  A 0.34 0.33 7.7 0 1 268.83 189.22
  Q 271.40 184.91 273.89 180.55
  Q 275.67 177.45 277.38 172.66
  Q 284.41 152.96 301.01 141.04
  Q 311.07 133.82 324.70 133.35
  Z"
/>
<path fill="#2157a5" d="
  M 324.70 133.35
  Q 333.89 133.58 342.66 137.56
  Q 355.50 143.38 358.04 156.84
  Q 358.42 158.86 359.44 161.49
  Q 360.34 163.84 360.57 166.31
  A 1.42 1.41 -85.0 0 1 358.78 167.82
  Q 355.16 166.80 352.14 165.12
  Q 348.37 163.01 346.58 162.46
  Q 338.90 160.10 330.85 159.69
  Q 330.22 159.65 330.71 159.25
  Q 331.44 158.64 331.60 158.22
  A 1.63 1.62 75.9 0 0 328.85 156.57
  Q 324.08 162.18 317.98 166.14
  Q 315.76 167.58 316.05 164.95
  Q 316.38 161.93 317.30 159.16
  Q 317.47 158.66 316.96 158.48
  L 315.58 157.99
  A 0.74 0.73 22.0 0 0 314.68 158.37
  L 313.90 160.01
  Q 313.69 160.47 313.20 160.61
  Q 309.89 161.61 306.59 162.61
  C 300.90 164.34 295.71 167.17 290.57 170.06
  Q 289.67 170.57 290.25 169.72
  Q 291.24 168.28 292.76 166.78
  Q 310.11 149.73 334.45 152.62
  A 0.76 0.76 0.0 0 0 335.28 151.99
  L 335.52 150.49
  Q 335.64 149.74 334.88 149.72
  L 324.96 149.45
  L 324.70 133.35
  Z
  M 351.52 151.16
  A 2.34 2.34 0.0 0 0 349.18 148.82
  A 2.34 2.34 0.0 0 0 346.84 151.16
  A 2.34 2.34 0.0 0 0 349.18 153.50
  A 2.34 2.34 0.0 0 0 351.52 151.16
  Z"
/>
<path fill="#fb4041" d="
  M 205.43 249.17
  L 212.88 249.15
  A 0.37 0.37 0.0 0 1 213.25 249.52
  L 213.25 254.41
  A 0.37 0.37 0.0 0 1 212.88 254.78
  L 199.74 254.75
  A 0.37 0.37 0.0 0 1 199.37 254.38
  L 199.37 212.24
  A 0.37 0.37 0.0 0 1 199.74 211.87
  L 204.68 211.87
  A 0.37 0.37 0.0 0 1 205.05 212.24
  L 205.06 248.80
  A 0.37 0.37 0.0 0 0 205.43 249.17
  Z"
/>
<path fill="#fb4041" d="
  M 403.51 242.00
  L 403.74 212.45
  A 0.56 0.56 0.0 0 1 404.30 211.89
  L 408.91 211.88
  Q 409.44 211.88 409.44 212.42
  L 409.14 254.45
  Q 409.13 255.03 408.55 255.03
  L 400.75 255.04
  Q 400.19 255.04 400.11 254.49
  L 395.65 223.36
  A 0.24 0.23 41.1 0 0 395.18 223.39
  L 395.23 254.53
  Q 395.23 255.04 394.72 255.04
  L 390.25 255.03
  Q 389.73 255.03 389.73 254.50
  L 389.73 212.47
  Q 389.73 211.92 390.28 211.91
  L 398.39 211.87
  A 0.58 0.57 86.0 0 1 398.96 212.37
  L 402.94 242.04
  A 0.29 0.29 0.0 0 0 403.51 242.00
  Z"
/>
<path fill="#fb4041" d="
  M 225.96 240.20
  L 224.24 254.47
  A 0.36 0.36 0.0 0 1 223.88 254.79
  L 218.86 254.76
  A 0.36 0.36 0.0 0 1 218.50 254.35
  L 224.92 212.37
  A 0.36 0.36 0.0 0 1 225.28 212.07
  L 232.36 212.00
  A 0.36 0.36 0.0 0 1 232.72 212.30
  L 239.98 254.37
  A 0.36 0.36 0.0 0 1 239.62 254.79
  L 234.71 254.75
  A 0.36 0.36 0.0 0 1 234.36 254.44
  L 232.37 240.22
  A 0.36 0.36 0.0 0 0 232.02 239.91
  L 226.32 239.88
  A 0.36 0.36 0.0 0 0 225.96 240.20
  Z
  M 227.85 234.29
  L 230.55 234.27
  A 0.23 0.23 0.0 0 0 230.78 234.04
  L 230.78 233.92
  A 13.91 1.44 89.5 0 0 229.22 220.02
  L 228.94 220.02
  A 13.91 1.44 89.5 0 0 227.62 233.94
  L 227.62 234.06
  A 0.23 0.23 0.0 0 0 227.85 234.29
  Z"
/>
<path fill="#fb4041" d="
  M 261.00 212.70
  A 0.59 0.59 0.0 0 1 261.59 212.11
  L 268.24 212.11
  A 9.85 9.54 -90.0 0 1 277.78 221.96
  L 277.78 245.04
  A 9.85 9.54 -90.0 0 1 268.24 254.89
  L 261.59 254.89
  A 0.59 0.59 0.0 0 1 261.00 254.30
  L 261.00 212.70
  Z
  M 266.85 218.51
  L 266.85 248.67
  A 0.49 0.49 0.0 0 0 267.34 249.16
  L 268.38 249.16
  A 3.98 3.89 -90.0 0 0 272.27 245.18
  L 272.27 222.00
  A 3.98 3.89 90.0 0 0 268.38 218.02
  L 267.34 218.02
  A 0.49 0.49 0.0 0 0 266.85 218.51
  Z"
/>
<path fill="#fb4041" d="
  M 295.28 239.90
  L 290.16 239.92
  A 0.46 0.46 0.0 0 0 289.70 240.31
  L 287.63 254.38
  A 0.46 0.46 0.0 0 1 287.17 254.77
  L 282.58 254.77
  A 0.46 0.46 0.0 0 1 282.13 254.24
  L 288.27 212.44
  A 0.46 0.46 0.0 0 1 288.72 212.05
  L 295.82 212.00
  A 0.46 0.46 0.0 0 1 296.28 212.38
  L 303.48 254.22
  A 0.46 0.46 0.0 0 1 303.02 254.76
  L 298.37 254.76
  A 0.46 0.46 0.0 0 1 297.92 254.37
  L 295.74 240.29
  A 0.46 0.46 0.0 0 0 295.28 239.90
  Z
  M 292.41 220.76
  L 290.46 233.55
  A 0.60 0.60 0.0 0 0 291.05 234.24
  L 294.48 234.24
  Q 294.94 234.24 294.86 233.79
  L 292.79 220.76
  Q 292.60 219.53 292.41 220.76
  Z"
/>
<path fill="#fb4041" d="
  M 315.30 245.74
  C 315.28 249.30 319.53 250.71 321.19 247.77
  Q 321.74 246.78 321.74 244.64
  Q 321.70 228.66 321.73 212.65
  Q 321.73 212.12 322.26 212.11
  L 326.50 212.06
  Q 327.09 212.05 327.09 212.64
  Q 327.22 228.45 327.07 244.22
  C 327.02 249.20 326.02 252.53 321.46 254.27
  C 317.50 255.79 313.28 254.12 311.07 250.63
  Q 309.76 248.57 309.74 244.57
  Q 309.67 228.60 309.69 212.63
  Q 309.69 212.07 310.25 212.07
  L 314.76 212.05
  A 0.64 0.64 0.0 0 1 315.40 212.69
  Q 315.38 229.25 315.30 245.74
  Z"
/>
<path fill="#fb4041" d="
  M 338.97 246.24
  L 339.01 254.25
  Q 339.01 254.76 338.50 254.76
  L 334.00 254.76
  Q 333.24 254.76 333.24 254.00
  L 333.23 212.73
  A 0.62 0.62 0.0 0 1 333.86 212.11
  C 343.55 212.29 349.28 210.25 349.24 222.83
  Q 349.23 228.81 349.27 234.78
  C 349.32 241.81 347.78 246.83 339.61 245.68
  A 0.56 0.56 0.0 0 0 338.97 246.24
  Z
  M 343.68 218.23
  A 0.26 0.26 0.0 0 0 343.42 217.97
  L 339.24 217.97
  A 0.26 0.26 0.0 0 0 338.98 218.23
  L 338.98 239.69
  A 0.26 0.26 0.0 0 0 339.24 239.95
  L 343.42 239.95
  A 0.26 0.26 0.0 0 0 343.68 239.69
  L 343.68 218.23
  Z"
/>
<path fill="#fb4041" d="
  M 361.00 232.55
  L 361.01 254.32
  A 0.44 0.44 0.0 0 1 360.57 254.76
  L 355.69 254.75
  A 0.44 0.44 0.0 0 1 355.25 254.31
  L 355.23 212.60
  A 0.44 0.44 0.0 0 1 355.66 212.16
  L 360.56 212.04
  A 0.44 0.44 0.0 0 1 361.01 212.48
  L 361.01 226.10
  A 0.44 0.44 0.0 0 0 361.45 226.54
  L 365.55 226.54
  A 0.44 0.44 0.0 0 0 365.99 226.10
  L 365.98 212.56
  A 0.44 0.44 0.0 0 1 366.42 212.12
  L 371.31 212.11
  A 0.44 0.44 0.0 0 1 371.75 212.55
  L 371.75 254.30
  A 0.44 0.44 0.0 0 1 371.31 254.74
  L 366.43 254.77
  A 0.44 0.44 0.0 0 1 365.99 254.33
  L 365.99 232.56
  A 0.44 0.44 0.0 0 0 365.55 232.12
  L 361.44 232.11
  A 0.44 0.44 0.0 0 0 361.00 232.55
  Z"
/>
<rect fill="#fb4041" x="377.80" y="212.01" width="5.74" height="42.48" rx="0.41"/>
<path fill="#fb4041" d="
  M 421.00 218.32
  L 421.00 226.07
  A 0.47 0.47 0.0 0 0 421.47 226.54
  L 428.95 226.48
  A 0.47 0.47 0.0 0 1 429.42 226.95
  L 429.42 231.77
  A 0.47 0.47 0.0 0 1 428.95 232.24
  L 421.47 232.23
  A 0.47 0.47 0.0 0 0 421.00 232.70
  L 421.00 248.65
  A 0.47 0.47 0.0 0 0 421.47 249.12
  L 429.03 249.04
  A 0.47 0.47 0.0 0 1 429.50 249.51
  L 429.50 254.29
  A 0.47 0.47 0.0 0 1 429.03 254.76
  L 415.78 254.75
  A 0.47 0.47 0.0 0 1 415.31 254.28
  L 415.32 212.60
  A 0.47 0.47 0.0 0 1 415.79 212.13
  L 429.03 212.12
  A 0.47 0.47 0.0 0 1 429.50 212.59
  L 429.50 217.48
  A 0.47 0.47 0.0 0 1 429.02 217.95
  L 421.48 217.85
  A 0.47 0.47 0.0 0 0 421.00 218.32
  Z"
/>
<path fill="#fb4041" d="
  M 233.22 282.76
  C 231.61 285.83 227.52 285.86 225.86 282.88
  Q 225.56 282.33 226.15 282.13
  Q 227.42 281.70 228.23 282.65
  Q 228.54 283.01 228.99 283.17
  Q 230.43 283.68 231.19 282.45
  A 0.59 0.59 0.0 0 0 230.85 281.58
  C 229.01 281.05 225.53 280.17 226.04 277.28
  A 1.22 1.17 78.9 0 1 226.55 276.49
  Q 230.14 274.02 233.16 277.21
  Q 233.67 277.74 232.98 277.98
  L 232.09 278.29
  Q 231.56 278.48 231.24 278.01
  Q 230.12 276.37 228.27 277.32
  A 0.87 0.87 0.0 0 0 228.60 278.96
  Q 231.55 279.22 233.19 281.58
  Q 233.53 282.07 233.53 281.47
  Q 233.51 279.15 233.47 276.83
  Q 233.46 276.02 233.78 275.71
  Q 234.13 275.39 234.71 275.55
  Q 235.24 275.69 235.24 276.23
  L 235.23 281.96
  A 1.25 1.25 0.0 0 0 236.36 283.20
  C 239.88 283.53 238.76 278.23 238.70 276.10
  Q 238.69 275.47 239.32 275.51
  L 240.19 275.58
  Q 240.81 275.62 240.80 276.24
  C 240.76 278.62 241.35 282.17 239.84 283.94
  C 238.26 285.79 234.71 285.48 233.73 282.79
  Q 233.52 282.20 233.22 282.76
  Z"
/>
<path fill="#fb4041" d="
  M 243.71 282.28
  L 243.75 284.37
  Q 243.76 285.01 243.12 284.99
  L 242.15 284.97
  Q 241.58 284.96 241.59 284.40
  L 241.62 276.23
  Q 241.63 275.73 242.12 275.65
  Q 244.87 275.21 246.53 275.67
  C 249.72 276.56 249.05 282.22 244.32 281.72
  Q 243.70 281.65 243.71 282.28
  Z
  M 246.7083 278.6834
  A 1.61 1.49 6.9 0 0 245.2890 277.0108
  A 1.61 1.49 6.9 0 0 243.5117 278.2966
  A 1.61 1.49 6.9 0 0 244.9310 279.9692
  A 1.61 1.49 6.9 0 0 246.7083 278.6834
  Z"
/>
<path fill="#fb4041" d="
  M 251.23 279.34
  L 253.54 279.18
  A 0.32 0.32 0.0 0 1 253.88 279.47
  L 254.03 280.82
  A 0.32 0.32 0.0 0 1 253.71 281.18
  L 251.07 281.14
  A 0.32 0.32 0.0 0 0 250.74 281.47
  L 250.77 282.79
  A 0.32 0.32 0.0 0 0 251.10 283.11
  L 253.91 282.99
  A 0.32 0.32 0.0 0 1 254.24 283.32
  L 254.17 284.71
  A 0.32 0.32 0.0 0 1 253.85 285.01
  L 249.10 285.00
  A 0.32 0.32 0.0 0 1 248.78 284.68
  L 248.80 275.89
  A 0.32 0.32 0.0 0 1 249.11 275.58
  L 254.01 275.51
  A 0.32 0.32 0.0 0 1 254.32 275.92
  L 254.05 276.82
  A 0.32 0.32 0.0 0 1 253.75 277.05
  L 251.02 277.13
  A 0.32 0.32 0.0 0 0 250.71 277.49
  L 250.89 279.06
  A 0.32 0.32 0.0 0 0 251.23 279.34
  Z"
/>
<path fill="#fb4041" d="
  M 267.79 280.62
  L 269.41 276.18
  A 1.62 1.62 0.0 0 1 272.55 276.63
  L 272.96 283.00
  A 0.28 0.28 0.0 0 0 273.50 283.08
  L 275.82 276.47
  Q 275.97 276.04 276.38 275.85
  Q 278.73 274.76 279.28 276.70
  Q 280.58 281.31 281.64 283.65
  A 0.36 0.36 0.0 0 0 282.32 283.50
  L 282.24 277.29
  Q 282.22 276.01 283.46 275.67
  Q 287.38 274.58 288.57 277.94
  A 1.12 1.11 -35.9 0 1 288.40 278.99
  L 287.05 280.73
  A 0.74 0.74 0.0 0 0 287.06 281.64
  L 289.09 284.19
  A 0.49 0.49 0.0 0 1 288.72 284.99
  L 287.85 285.01
  Q 287.23 285.02 286.93 284.48
  L 284.96 281.05
  A 0.47 0.47 0.0 0 0 284.08 281.29
  L 284.12 284.21
  Q 284.12 284.56 283.80 284.70
  Q 280.60 286.13 279.37 283.42
  Q 279.19 283.02 278.75 283.01
  L 275.97 283.00
  Q 275.36 282.99 275.17 283.58
  Q 274.43 285.92 271.47 284.83
  Q 271.05 284.68 271.02 284.24
  L 270.66 279.30
  A 0.24 0.24 0.0 0 0 270.20 279.24
  L 268.24 284.63
  A 0.73 0.73 0.0 0 1 266.85 284.57
  Q 266.06 281.65 264.62 279.00
  Q 264.29 278.38 264.26 279.08
  L 263.99 284.52
  Q 263.97 285.00 263.48 285.00
  L 260.62 285.00
  Q 260.22 285.01 260.01 284.67
  L 257.77 281.25
  Q 256.96 280.01 256.98 281.50
  L 257.02 284.36
  Q 257.03 285.00 256.39 285.00
  L 255.55 284.99
  Q 254.99 284.99 254.99 284.42
  L 254.97 276.21
  Q 254.97 275.69 255.48 275.61
  Q 257.37 275.35 259.14 275.59
  C 261.66 275.92 262.06 279.28 260.09 280.51
  Q 259.59 280.82 259.89 281.33
  L 261.29 283.67
  A 0.33 0.33 0.0 0 0 261.91 283.54
  L 262.69 276.78
  A 1.69 1.69 0.0 0 1 265.98 276.48
  L 267.24 280.61
  Q 267.49 281.43 267.79 280.62
  Z
  M 256.94 277.51
  L 257.01 279.07
  A 0.45 0.45 0.0 0 0 257.47 279.50
  L 257.58 279.49
  A 2.20 1.13 -2.5 0 0 259.73 278.27
  L 259.72 278.07
  A 2.20 1.13 -2.5 0 0 257.48 277.04
  L 257.37 277.04
  A 0.45 0.45 0.0 0 0 256.94 277.51
  Z
  M 285.03 279.54
  L 286.53 278.79
  A 0.45 0.45 0.0 0 0 286.73 278.19
  L 286.51 277.74
  A 1.43 1.20 63.5 0 0 284.80 276.99
  L 284.64 277.08
  A 1.43 1.20 63.5 0 0 284.20 278.89
  L 284.43 279.34
  A 0.45 0.45 0.0 0 0 285.03 279.54
  Z
  M 276.17 280.95
  A 0.32 0.32 0.0 0 0 276.48 281.38
  L 278.40 281.36
  A 0.32 0.32 0.0 0 0 278.69 280.92
  L 277.70 278.43
  A 0.32 0.32 0.0 0 0 277.10 278.43
  L 276.17 280.95
  Z"
/>
<path fill="#fb4041" d="
  M 296.32 278.85
  C 292.94 273.85 287.88 281.26 292.72 283.03
  Q 294.63 283.73 296.06 282.09
  Q 296.41 281.70 296.92 281.82
  L 297.74 282.02
  Q 298.27 282.15 297.96 282.60
  C 295.13 286.84 288.85 285.29 289.01 279.97
  C 289.15 275.06 294.96 274.01 297.91 277.39
  Q 298.28 277.82 297.89 278.23
  L 297.23 278.93
  A 0.59 0.58 49.8 0 1 296.32 278.85
  Z"
/>
<path fill="#fb4041" d="
  M 300.24 281.52
  L 300.26 284.66
  A 0.33 0.33 0.0 0 1 299.93 284.99
  L 298.93 285.01
  A 0.33 0.33 0.0 0 1 298.60 284.68
  L 298.61 275.90
  A 0.33 0.33 0.0 0 1 298.93 275.57
  L 299.91 275.52
  A 0.33 0.33 0.0 0 1 300.26 275.86
  L 300.23 278.91
  A 0.33 0.33 0.0 0 0 300.56 279.24
  L 303.92 279.29
  A 0.33 0.33 0.0 0 0 304.26 278.93
  L 304.04 275.90
  A 0.33 0.33 0.0 0 1 304.37 275.55
  L 305.92 275.53
  A 0.33 0.33 0.0 0 1 306.25 275.86
  L 306.24 284.69
  A 0.33 0.33 0.0 0 1 305.90 285.02
  L 304.30 284.95
  A 0.33 0.33 0.0 0 1 303.99 284.59
  L 304.30 281.54
  A 0.33 0.33 0.0 0 0 303.97 281.17
  L 300.57 281.19
  A 0.33 0.33 0.0 0 0 300.24 281.52
  Z"
/>
<path fill="#fb4041" d="
  M 309.24 277.72
  L 309.27 278.72
  A 0.66 0.66 0.0 0 0 310.17 279.31
  Q 311.07 278.97 312.05 279.26
  A 0.98 0.98 0.0 0 1 311.77 281.18
  L 309.72 281.20
  A 0.62 0.62 0.0 0 0 309.10 281.89
  L 309.15 282.30
  Q 309.21 282.88 309.80 282.92
  L 312.51 283.12
  A 0.94 0.94 0.0 0 1 312.44 284.99
  L 308.07 285.01
  A 0.70 0.70 0.0 0 1 307.37 284.32
  L 307.31 276.15
  A 0.56 0.55 89.5 0 1 307.85 275.59
  L 312.20 275.48
  Q 312.90 275.46 312.90 276.16
  L 312.90 276.52
  Q 312.90 277.13 312.28 277.14
  L 309.78 277.15
  Q 309.21 277.15 309.24 277.72
  Z"
/>
<path fill="#fb4041" d="
  M 325.03 277.73
  L 325.04 284.48
  Q 325.04 285.00 324.52 284.99
  L 323.62 284.99
  A 0.62 0.61 0.5 0 1 323.00 284.37
  L 323.01 277.68
  Q 323.01 277.10 322.42 277.11
  L 318.15 277.15
  A 0.62 0.62 0.0 0 0 317.55 277.87
  L 317.74 278.94
  Q 317.81 279.41 318.28 279.35
  Q 319.46 279.19 320.34 279.28
  A 0.97 0.97 0.0 0 1 320.24 281.21
  L 318.29 281.18
  A 0.89 0.89 0.0 0 0 318.23 282.96
  Q 319.47 283.04 320.66 282.99
  Q 321.27 282.96 321.26 283.56
  L 321.26 284.38
  Q 321.26 285.01 320.62 285.01
  L 316.29 285.00
  Q 315.71 285.00 315.71 284.42
  L 315.72 276.03
  A 0.50 0.50 0.0 0 1 316.22 275.53
  L 326.65 275.57
  Q 327.21 275.57 327.15 276.12
  L 327.10 276.50
  Q 327.04 277.05 326.50 277.09
  L 325.52 277.18
  Q 325.03 277.23 325.03 277.73
  Z"
/>
<path fill="#fb4041" d="
  M 342.39 283.83
  L 342.35 284.47
  A 0.57 0.57 0.0 0 1 341.78 285.01
  L 335.09 284.95
  Q 334.71 284.95 334.50 284.63
  L 332.28 281.25
  A 0.41 0.41 0.0 0 0 331.52 281.50
  L 331.66 284.28
  Q 331.69 285.01 330.96 284.99
  L 330.10 284.98
  Q 329.48 284.97 329.48 284.35
  L 329.50 276.12
  Q 329.50 275.48 330.14 275.51
  L 334.22 275.67
  Q 334.84 275.70 335.20 276.21
  Q 336.93 278.76 334.70 280.52
  Q 334.16 280.95 334.56 281.52
  L 336.33 284.06
  A 0.45 0.45 0.0 0 0 337.14 283.80
  L 337.12 276.10
  A 0.54 0.53 -90.0 0 1 337.65 275.56
  L 341.98 275.56
  A 0.57 0.57 0.0 0 1 342.35 276.56
  Q 341.22 277.55 339.65 276.95
  A 0.53 0.52 -78.9 0 0 338.94 277.43
  L 338.92 278.78
  Q 338.90 279.41 339.53 279.36
  L 341.46 279.21
  Q 342.00 279.16 342.00 279.71
  L 342.00 280.62
  A 0.59 0.58 1.8 0 1 341.37 281.20
  L 339.56 281.08
  Q 338.90 281.04 338.84 281.70
  L 338.80 282.25
  Q 338.75 282.88 339.37 283.00
  Q 341.61 283.43 343.24 282.04
  A 0.68 0.68 0.0 0 1 344.18 282.10
  Q 345.25 283.25 346.74 283.36
  A 0.97 0.97 0.0 0 0 347.10 281.46
  C 345.61 280.99 342.86 280.26 342.64 278.25
  C 342.33 275.44 346.06 275.09 347.90 275.85
  Q 348.31 276.01 348.75 275.93
  Q 352.00 275.29 355.33 275.63
  A 0.47 0.46 -84.9 0 1 355.74 276.13
  L 355.70 276.53
  A 0.56 0.55 -1.3 0 1 355.20 277.04
  L 353.88 277.19
  Q 353.27 277.25 353.28 277.87
  L 353.38 284.40
  A 0.60 0.60 0.0 0 1 352.76 285.00
  L 352.09 284.98
  A 0.63 0.62 -89.1 0 1 351.49 284.35
  L 351.51 277.36
  Q 351.51 276.54 350.81 276.97
  L 348.86 278.19
  A 0.63 0.63 0.0 0 1 348.07 278.08
  Q 347.14 277.08 345.78 276.95
  A 0.99 0.98 57.5 0 0 345.36 278.86
  L 348.41 279.93
  A 2.26 2.26 0.0 0 1 349.18 283.73
  Q 346.11 286.55 342.92 283.62
  Q 342.43 283.16 342.39 283.83
  Z
  M 334.10 278.21
  A 1.30 1.30 0.0 0 0 332.80 276.91
  A 1.30 1.30 0.0 0 0 331.50 278.21
  A 1.30 1.30 0.0 0 0 332.80 279.51
  A 1.30 1.30 0.0 0 0 334.10 278.21
  Z"
/>
<path fill="#fb4041" d="
  M 357.20 283.69
  Q 357.21 285.22 355.58 285.00
  A 0.70 0.69 -75.2 0 1 355.03 284.05
  L 358.08 276.29
  A 1.50 1.50 0.0 0 1 360.86 276.29
  L 364.00 284.27
  A 0.53 0.52 72.3 0 1 363.64 284.98
  Q 361.75 285.44 361.73 283.66
  A 0.65 0.65 0.0 0 0 361.09 283.02
  L 357.92 282.98
  Q 357.20 282.97 357.20 283.69
  Z
  M 358.10 280.94
  A 0.34 0.34 0.0 0 0 358.42 281.39
  L 360.50 281.36
  A 0.34 0.34 0.0 0 0 360.81 280.90
  L 359.73 278.13
  A 0.34 0.34 0.0 0 0 359.09 278.14
  L 358.10 280.94
  Z"
/>
<path fill="#fb4041" d="
  M 366.34 282.80
  Q 367.53 283.56 368.75 282.85
  A 1.00 1.00 0.0 0 0 369.24 281.99
  L 369.19 276.18
  A 0.64 0.64 0.0 0 1 369.82 275.53
  L 370.52 275.52
  Q 371.28 275.52 371.27 276.28
  L 371.17 282.94
  A 0.98 0.96 70.9 0 1 370.83 283.66
  Q 368.03 286.04 365.79 284.58
  C 363.33 282.98 363.88 278.74 364.05 276.09
  Q 364.08 275.52 364.65 275.52
  L 365.22 275.52
  Q 365.74 275.52 365.75 276.04
  L 365.86 281.93
  Q 365.87 282.49 366.34 282.80
  Z"
/>
<path fill="#fb4041" d="
  M 394.30 281.16
  L 394.26 276.31
  Q 394.25 275.63 394.94 275.62
  L 402.27 275.50
  A 0.81 0.81 0.0 0 1 402.47 277.09
  Q 401.97 277.21 401.22 277.18
  A 0.58 0.57 0.5 0 0 400.62 277.76
  L 400.68 284.38
  Q 400.68 284.94 400.12 284.96
  L 399.33 284.99
  Q 398.89 285.01 398.90 284.58
  L 398.95 277.75
  A 0.63 0.63 0.0 0 0 398.37 277.12
  L 396.66 276.98
  Q 396.27 276.94 396.27 277.34
  L 396.30 284.09
  A 1.22 1.22 0.0 0 1 394.06 284.77
  L 390.28 279.02
  Q 389.99 278.57 389.99 279.10
  L 390.00 284.19
  Q 390.00 284.59 389.64 284.74
  Q 386.50 286.01 385.36 283.52
  Q 385.13 283.01 384.56 283.00
  L 381.91 282.98
  Q 381.28 282.98 381.10 283.59
  Q 380.45 285.75 377.84 284.94
  Q 377.38 284.79 377.12 284.40
  L 374.89 281.07
  A 0.41 0.40 -62.2 0 0 374.15 281.30
  L 374.16 284.29
  Q 374.16 285.00 373.46 285.00
  L 372.78 284.99
  Q 372.19 284.99 372.20 284.40
  L 372.25 276.19
  Q 372.25 275.73 372.71 275.64
  C 373.72 275.44 374.77 275.53 376.01 275.54
  C 378.59 275.57 379.57 279.02 377.29 280.33
  Q 376.71 280.66 377.05 281.25
  L 378.26 283.31
  A 0.53 0.52 39.9 0 0 379.21 283.23
  L 381.66 276.65
  A 1.69 1.69 0.0 0 1 384.83 276.65
  L 387.45 283.75
  A 0.27 0.27 0.0 0 0 387.97 283.66
  L 387.97 276.74
  A 1.36 1.36 0.0 0 1 390.48 276.02
  L 393.80 281.31
  Q 394.31 282.12 394.30 281.16
  Z
  M 376.8206 278.3453
  A 1.46 1.25 6.5 0 0 375.5115 276.9380
  A 1.46 1.25 6.5 0 0 373.9194 278.0147
  A 1.46 1.25 6.5 0 0 375.2285 279.4220
  A 1.46 1.25 6.5 0 0 376.8206 278.3453
  Z
  M 381.72 280.90
  A 0.33 0.33 0.0 0 0 382.00 281.37
  L 384.06 281.52
  A 0.33 0.33 0.0 0 0 384.41 281.10
  L 383.58 278.30
  A 0.33 0.33 0.0 0 0 382.96 278.25
  L 381.72 280.90
  Z"
/>
<path fill="#fbec41" d="
  M 188.89 290.70
  Q 191.17 291.41 199.07 294.66
  Q 256.37 318.24 313.71 341.76
  Q 314.16 341.95 314.60 341.75
  L 439.08 286.96
  A 0.15 0.15 0.0 0 1 439.20 287.24
  L 315.24 348.96
  A 2.58 2.57 -45.7 0 1 313.01 348.99
  L 188.33 290.63
  A 0.07 0.07 0.0 0 1 188.32 290.50
  Q 188.52 290.38 188.66 290.55
  Q 188.76 290.66 188.89 290.70
  Z"
/>
</svg>
