<?xml version="1.0" encoding="UTF-8" standalone="no"?>
<!DOCTYPE svg PUBLIC "-//W3C//DTD SVG 1.1//EN" "http://www.w3.org/Graphics/SVG/1.1/DTD/svg11.dtd">
<svg xmlns="http://www.w3.org/2000/svg" version="1.1" viewBox="0.00 0.00 536.00 466.00">
<g stroke-width="2.00" fill="none" stroke-linecap="butt">
<path stroke="#1b4578" vector-effect="non-scaling-stroke" d="
  M 194.69 287.95
  Q 194.28 287.41 193.98 287.85"
/>
<path stroke="#8c98a7" vector-effect="non-scaling-stroke" d="
  M 193.98 287.85
  Q 181.92 258.41 178.37 233.38
  Q 176.62 220.99 179.72 203.16"
/>
<path stroke="#1b4578" vector-effect="non-scaling-stroke" d="
  M 179.72 203.16
  Q 185.93 209.74 193.17 213.71
  Q 194.78 214.60 194.89 212.76
  L 195.95 194.51
  A 3.59 3.59 0.0 0 0 194.96 191.82
  L 184.37 180.73"
/>
<path stroke="#8c98a7" vector-effect="non-scaling-stroke" d="
  M 184.37 180.73
  Q 186.35 176.56 188.04 173.10
  C 191.94 165.12 190.44 157.45 190.09 149.41
  C 189.79 142.71 193.04 140.04 195.03 134.41
  Q 195.64 132.69 196.23 131.21"
/>
<path stroke="#1b4578" vector-effect="non-scaling-stroke" d="
  M 198.97 115.97
  Q 198.59 115.43 198.00 115.52
  Q 197.62 115.58 197.22 116.04
  Q 191.18 123.06 184.19 129.15
  C 179.64 133.10 176.17 131.68 170.99 132.77
  C 167.72 133.46 164.05 135.80 160.73 137.48
  C 157.50 139.13 155.55 140.98 153.45 143.70
  C 149.62 148.68 145.02 153.36 142.19 158.57
  C 136.82 168.43 135.66 179.52 134.93 192.08
  Q 134.89 192.60 134.52 192.97
  C 132.19 195.30 129.02 197.15 127.05 199.19
  C 120.62 205.84 116.53 212.68 116.94 222.19
  Q 116.99 223.44 117.88 222.57
  C 119.68 220.80 121.79 217.89 124.47 217.71
  C 129.47 217.36 131.70 223.82 132.37 227.36
  C 134.05 236.07 135.79 243.13 138.11 253.34
  C 140.58 264.17 144.29 274.62 149.63 284.39
  C 152.80 290.19 155.48 295.37 159.59 300.90
  C 162.86 305.30 165.77 310.26 169.38 314.27
  Q 171.57 316.70 173.80 319.11
  Q 174.08 319.41 173.70 319.57
  C 167.87 322.03 160.42 326.46 152.93 329.17
  Q 151.04 329.85 148.98 329.51
  Q 136.58 327.43 124.01 327.20
  Q 117.74 327.08 105.11 328.81
  Q 90.25 330.85 75.41 333.16
  C 64.99 334.79 56.82 337.79 47.99 342.45
  A 0.88 0.88 0.0 0 0 48.25 344.09
  C 66.51 347.20 82.91 351.16 102.76 352.17
  Q 109.63 352.52 122.74 352.62
  Q 159.25 352.92 195.76 353.18
  Q 205.46 353.25 215.75 352.90
  Q 266.02 351.16 316.32 350.60
  C 351.51 350.20 387.76 347.77 423.49 349.71
  Q 448.25 351.05 473.05 351.04
  C 479.56 351.04 495.75 350.44 497.18 341.54
  C 498.07 336.07 482.99 324.82 478.72 322.11
  C 473.16 318.59 466.92 315.07 461.00 314.78
  Q 446.81 314.08 430.27 318.19
  Q 424.59 319.60 422.66 319.78
  C 413.14 320.65 406.83 314.38 397.50 313.34
  C 389.64 312.46 379.08 312.72 371.80 316.27
  C 368.14 318.06 364.38 319.97 360.70 321.03
  C 349.76 324.19 341.86 323.48 327.92 322.68
  Q 312.73 321.81 297.64 319.87
  C 285.18 318.26 273.31 314.13 260.60 313.80
  Q 252.39 313.59 248.75 313.97
  Q 229.67 315.99 211.23 322.97"
/>
<path stroke="#8c98a7" vector-effect="non-scaling-stroke" d="
  M 211.23 322.97
  Q 209.08 317.11 205.52 311.74"
/>
<path stroke="#1b4578" vector-effect="non-scaling-stroke" d="
  M 205.52 311.74
  Q 205.64 311.62 206.12 311.61"
/>
<path stroke="#1b4578" vector-effect="non-scaling-stroke" d="
  M 304.76 319.27
  Q 307.82 320.24 310.97 319.81"
/>
<path stroke="#1b4578" vector-effect="non-scaling-stroke" d="
  M 454.25 352.38
  L 445.51 352.09"
/>
<path stroke="#1b4578" vector-effect="non-scaling-stroke" d="
  M 436.76 351.63
  L 420.52 350.92"
/>
<path stroke="#1b4578" vector-effect="non-scaling-stroke" d="
  M 413.93 350.64
  Q 393.98 349.87 374.03 350.67"
/>
<path stroke="#1b4578" vector-effect="non-scaling-stroke" d="
  M 313.28 352.17
  Q 292.01 351.84 270.75 352.43
  Q 268.50 352.49 266.28 352.80"
/>
<path stroke="#1b4578" vector-effect="non-scaling-stroke" d="
  M 260.97 352.94
  L 235.52 353.66"
/>
<path stroke="#1b4578" vector-effect="non-scaling-stroke" d="
  M 227.98 353.94
  L 208.26 354.65"
/>
<path stroke="#1b4578" vector-effect="non-scaling-stroke" d="
  M 192.73 354.62
  L 133.04 354.12"
/>
<path stroke="#1b4578" vector-effect="non-scaling-stroke" d="
  M 107.82 353.64
  Q 90.54 352.63 73.49 350.19"
/>
<path stroke="#8eadd0" vector-effect="non-scaling-stroke" d="
  M 193.84 128.92
  Q 190.24 136.20 186.71 143.51
  Q 185.72 145.57 183.96 146.83
  Q 179.56 149.96 174.72 152.52
  Q 174.28 152.75 174.25 153.25
  Q 173.78 160.63 173.30 168.02
  C 173.22 169.28 173.73 169.72 174.42 170.62
  Q 178.78 176.28 184.37 180.73"
/>
<path stroke="#8eadd0" vector-effect="non-scaling-stroke" d="
  M 179.72 203.16
  Q 170.90 198.13 166.58 189.20
  Q 166.35 188.72 166.22 189.24
  Q 165.02 194.05 164.98 197.75
  Q 164.83 213.24 166.13 230.94
  C 166.98 242.41 169.26 252.23 173.08 262.47
  C 179.75 280.32 187.99 302.44 199.42 323.29
  C 201.41 326.92 203.99 330.32 206.28 333.89
  Q 206.54 334.29 207.01 334.24
  L 217.77 333.18
  Q 218.46 333.12 218.06 332.55
  L 211.23 322.97"
/>
<path stroke="#8eadd0" vector-effect="non-scaling-stroke" d="
  M 193.98 287.85
  Q 197.44 300.58 205.52 311.74"
/>
<path stroke="#1b4578" vector-effect="non-scaling-stroke" d="
  M 247.21 327.95
  C 257.20 323.33 268.61 320.60 279.95 320.09
  Q 280.53 320.07 280.55 319.49
  L 280.57 319.08
  A 0.49 0.49 0.0 0 0 280.06 318.57
  Q 262.57 319.20 246.83 326.58
  C 241.46 329.11 237.65 332.37 233.98 336.80
  A 0.45 0.45 0.0 0 0 234.19 337.52
  L 234.81 337.71
  Q 235.27 337.85 235.57 337.46
  Q 240.45 331.07 247.21 327.95"
/>
<path stroke="#1b4578" vector-effect="non-scaling-stroke" d="
  M 368.51 327.74
  C 374.23 324.56 382.55 321.26 388.99 322.79
  Q 392.57 323.63 400.53 326.39
  Q 401.15 326.60 401.54 326.51
  A 0.63 0.63 0.0 0 0 401.64 325.30
  C 395.74 322.99 389.14 320.46 382.94 321.10
  Q 374.35 321.99 367.31 327.31
  A 0.39 0.38 -59.2 0 0 367.48 328.00
  Q 367.94 328.06 368.51 327.74"
/>
<path stroke="#1b4578" vector-effect="non-scaling-stroke" d="
  M 444.04 326.30
  C 451.99 321.72 460.65 322.19 469.19 325.10
  C 475.85 327.38 482.33 328.36 486.68 334.57
  Q 487.15 335.23 487.86 334.65
  Q 488.23 334.37 488.00 333.96
  Q 485.62 329.90 481.29 327.99
  C 468.75 322.48 456.62 318.23 443.36 324.71
  A 0.96 0.96 0.0 0 0 442.84 325.39
  Q 442.63 326.45 443.42 326.49
  Q 443.69 326.51 444.04 326.30"
/>
<path stroke="#1b4578" vector-effect="non-scaling-stroke" d="
  M 297.37 329.21
  C 304.83 329.64 311.38 332.51 318.30 334.84
  A 0.67 0.66 20.8 0 0 319.13 334.47
  L 319.30 334.08
  A 0.52 0.51 20.8 0 0 318.98 333.39
  C 312.80 331.38 306.32 328.60 300.15 327.98
  Q 287.98 326.76 276.10 330.25
  Q 275.22 330.51 275.73 331.30
  A 0.71 0.70 -24.3 0 0 276.51 331.59
  Q 286.66 328.59 297.37 329.21"
/>
<path stroke="#1b4578" vector-effect="non-scaling-stroke" d="
  M 351.87 335.87
  C 355.30 335.09 371.83 334.24 376.19 337.04
  Q 380.37 339.72 384.34 342.69
  A 0.53 0.53 0.0 0 0 385.05 341.92
  Q 378.05 333.96 367.02 333.71
  Q 356.57 333.47 346.43 335.21
  A 0.64 0.64 0.0 0 0 346.53 336.48
  Q 349.08 336.51 351.87 335.87"
/>
<path stroke="#1b4578" vector-effect="non-scaling-stroke" d="
  M 423.38 335.94
  C 432.79 334.54 441.42 337.78 450.20 340.06
  A 0.62 0.61 16.2 0 0 450.94 339.66
  L 451.07 339.25
  Q 451.29 338.60 450.62 338.45
  C 444.18 337.06 437.07 334.48 431.06 334.20
  Q 416.98 333.56 404.51 340.78
  Q 404.00 341.08 404.39 341.52
  Q 404.65 341.81 405.14 341.88
  Q 405.48 341.93 405.90 341.70
  Q 414.14 337.32 423.38 335.94"
/>
<path stroke="#1b4578" vector-effect="non-scaling-stroke" d="
  M 175.37 338.87
  C 186.87 337.33 197.66 339.60 208.74 340.59
  Q 209.23 340.64 209.35 340.16
  L 209.43 339.81
  A 0.52 0.51 10.4 0 0 208.99 339.18
  C 199.78 338.13 189.56 336.45 180.97 336.81
  C 171.01 337.22 161.90 340.26 152.70 343.11
  A 0.84 0.82 89.5 0 0 152.13 343.70
  Q 151.98 344.26 152.41 344.44
  Q 152.66 344.55 153.07 344.42
  Q 165.97 340.14 175.37 338.87"
/>
<path stroke="#1b4578" vector-effect="non-scaling-stroke" d="
  M 104.62 338.87
  C 113.30 337.82 120.91 339.70 129.15 341.44
  A 0.71 0.70 9.1 0 0 129.99 340.84
  Q 130.04 340.47 129.77 340.15
  Q 129.57 339.93 129.16 339.85
  C 123.13 338.65 116.67 337.06 110.87 337.02
  C 100.79 336.95 91.78 340.28 82.49 343.11
  Q 81.98 343.26 82.05 343.78
  Q 82.09 344.13 82.32 344.30
  Q 82.59 344.49 83.18 344.29
  Q 96.68 339.84 104.62 338.87"
/>
<path stroke="#1b4578" vector-effect="non-scaling-stroke" d="
  M 244.70 341.10
  C 260.06 339.36 276.28 337.73 292.33 340.25
  Q 307.76 342.68 322.93 346.48
  A 0.47 0.46 9.4 0 0 323.51 346.07
  Q 323.52 345.94 323.54 345.81
  Q 323.60 345.28 323.09 345.11
  Q 319.61 343.93 316.00 343.24
  C 301.38 340.41 287.07 336.85 272.50 337.43
  Q 258.55 337.98 244.67 339.56
  Q 244.24 339.60 244.10 339.84
  Q 243.91 340.14 244.05 340.66
  A 0.60 0.59 -10.5 0 0 244.70 341.10"
/>
<path stroke="#1b4578" vector-effect="non-scaling-stroke" d="
  M 109.37 347.52
  C 121.72 342.90 132.84 345.56 145.24 347.81
  Q 146.09 347.96 146.38 347.18
  A 0.47 0.47 0.0 0 0 146.03 346.56
  C 133.36 343.81 122.39 341.74 110.20 345.39
  Q 108.94 345.77 108.57 346.69
  A 0.63 0.63 0.0 0 0 109.37 347.52"
/>
</g>
<path fill="#f6e734" d="
  M 372.53 93.11
  Q 372.58 93.12 372.62 93.12
  A 0.02 0.01 -13.3 0 0 372.64 93.10
  L 266.14 44.88
  A 1.21 1.20 46.7 0 0 265.21 44.85
  Q 244.86 52.58 224.99 60.71
  C 214.44 65.02 201.41 69.79 189.75 74.70
  Q 181.44 78.18 173.13 81.38
  Q 159.42 86.65 143.49 93.53
  Q 143.21 93.65 142.99 93.53
  Q 142.56 93.28 143.01 93.08
  L 265.61 37.35
  Q 266.00 37.18 266.38 37.38
  C 275.07 41.99 283.71 46.58 292.43 51.08
  Q 305.41 57.78 318.35 64.57
  Q 320.04 65.46 321.73 66.35
  Q 330.73 71.12 339.77 75.82
  Q 339.82 75.85 353.89 82.89
  Q 363.37 87.63 372.46 93.09
  Q 372.50 93.11 372.53 93.11
  Z"
/>
<path fill="#19304e" d="
  M 194.69 287.95
  Q 194.28 287.41 193.98 287.85
  Q 181.92 258.41 178.37 233.38
  Q 176.62 220.99 179.72 203.16
  Q 185.93 209.74 193.17 213.71
  Q 194.78 214.60 194.89 212.76
  L 195.95 194.51
  A 3.59 3.59 0.0 0 0 194.96 191.82
  L 184.37 180.73
  Q 186.35 176.56 188.04 173.10
  C 191.94 165.12 190.44 157.45 190.09 149.41
  C 189.79 142.71 193.04 140.04 195.03 134.41
  Q 195.64 132.69 196.23 131.21
  Q 198.70 126.22 201.23 121.76
  Q 202.56 119.43 202.24 117.49
  Q 201.74 114.42 198.97 115.97
  Q 198.59 115.43 198.00 115.52
  Q 197.62 115.58 197.22 116.04
  Q 191.18 123.06 184.19 129.15
  C 179.64 133.10 176.17 131.68 170.99 132.77
  C 167.72 133.46 164.05 135.80 160.73 137.48
  C 157.50 139.13 155.55 140.98 153.45 143.70
  C 149.62 148.68 145.02 153.36 142.19 158.57
  C 136.82 168.43 135.66 179.52 134.93 192.08
  Q 134.89 192.60 134.52 192.97
  C 132.19 195.30 129.02 197.15 127.05 199.19
  C 120.62 205.84 116.53 212.68 116.94 222.19
  Q 116.99 223.44 117.88 222.57
  C 119.68 220.80 121.79 217.89 124.47 217.71
  C 129.47 217.36 131.70 223.82 132.37 227.36
  C 134.05 236.07 135.79 243.13 138.11 253.34
  C 140.58 264.17 144.29 274.62 149.63 284.39
  C 152.80 290.19 155.48 295.37 159.59 300.90
  C 162.86 305.30 165.77 310.26 169.38 314.27
  Q 171.57 316.70 173.80 319.11
  Q 174.08 319.41 173.70 319.57
  C 167.87 322.03 160.42 326.46 152.93 329.17
  Q 151.04 329.85 148.98 329.51
  Q 136.58 327.43 124.01 327.20
  Q 117.74 327.08 105.11 328.81
  Q 90.25 330.85 75.41 333.16
  C 64.99 334.79 56.82 337.79 47.99 342.45
  A 0.88 0.88 0.0 0 0 48.25 344.09
  C 66.51 347.20 82.91 351.16 102.76 352.17
  Q 109.63 352.52 122.74 352.62
  Q 159.25 352.92 195.76 353.18
  Q 205.46 353.25 215.75 352.90
  Q 266.02 351.16 316.32 350.60
  C 351.51 350.20 387.76 347.77 423.49 349.71
  Q 448.25 351.05 473.05 351.04
  C 479.56 351.04 495.75 350.44 497.18 341.54
  C 498.07 336.07 482.99 324.82 478.72 322.11
  C 473.16 318.59 466.92 315.07 461.00 314.78
  Q 446.81 314.08 430.27 318.19
  Q 424.59 319.60 422.66 319.78
  C 413.14 320.65 406.83 314.38 397.50 313.34
  C 389.64 312.46 379.08 312.72 371.80 316.27
  C 368.14 318.06 364.38 319.97 360.70 321.03
  C 349.76 324.19 341.86 323.48 327.92 322.68
  Q 312.73 321.81 297.64 319.87
  C 285.18 318.26 273.31 314.13 260.60 313.80
  Q 252.39 313.59 248.75 313.97
  Q 229.67 315.99 211.23 322.97
  Q 209.08 317.11 205.52 311.74
  Q 205.64 311.62 206.12 311.61
  Q 209.42 315.89 211.12 320.53
  A 0.86 0.85 69.5 0 0 212.23 321.04
  Q 238.43 310.92 266.14 312.94
  Q 271.54 313.33 283.12 315.71
  Q 293.89 317.92 304.76 319.27
  Q 307.82 320.24 310.97 319.81
  Q 330.04 321.65 343.50 321.91
  Q 356.04 322.16 367.58 316.70
  Q 373.33 313.98 375.92 313.30
  C 386.49 310.54 398.06 310.58 408.21 315.08
  C 414.60 317.92 419.56 318.98 426.50 317.42
  C 438.23 314.78 448.23 312.99 459.79 313.43
  C 468.06 313.74 478.46 318.81 484.07 323.93
  C 489.11 328.51 503.81 337.80 496.68 345.93
  C 491.20 352.17 481.24 352.45 473.14 352.57
  Q 460.20 352.76 454.25 352.38
  L 445.51 352.09
  L 436.76 351.63
  L 420.52 350.92
  L 413.93 350.64
  Q 393.98 349.87 374.03 350.67
  L 313.28 352.17
  Q 292.01 351.84 270.75 352.43
  Q 268.50 352.49 266.28 352.80
  L 260.97 352.94
  L 235.52 353.66
  L 227.98 353.94
  L 208.26 354.65
  L 192.73 354.62
  L 133.04 354.12
  L 107.82 353.64
  Q 90.54 352.63 73.49 350.19
  Q 61.37 348.11 49.24 345.73
  Q 46.76 345.24 45.97 343.54
  Q 45.41 342.32 46.58 341.66
  C 55.17 336.84 63.08 333.65 73.28 331.96
  Q 91.85 328.89 110.54 326.69
  Q 119.32 325.65 127.01 326.01
  Q 138.80 326.57 150.50 328.22
  C 151.63 328.38 154.52 327.22 155.91 326.48
  Q 163.11 322.64 170.47 319.10
  Q 170.92 318.88 170.61 318.50
  Q 161.63 307.41 153.71 295.54
  C 152.57 293.83 151.98 291.77 150.97 290.18
  Q 141.93 275.94 137.90 259.51
  Q 133.79 242.67 130.05 225.75
  C 129.46 223.07 126.06 216.86 122.65 220.37
  Q 119.61 223.50 116.43 226.44
  Q 116.04 226.80 115.92 226.28
  C 113.41 215.41 117.12 208.47 123.46 200.55
  C 126.11 197.24 129.56 194.92 132.76 192.03
  Q 133.14 191.69 133.17 191.18
  C 133.81 179.50 135.70 166.72 140.85 157.20
  C 143.47 152.35 147.68 148.09 151.20 143.66
  Q 154.41 139.62 157.46 137.50
  C 161.89 134.42 168.02 130.97 173.49 130.55
  C 176.37 130.33 179.62 130.72 182.02 128.64
  Q 189.06 122.53 195.60 115.90
  C 197.47 114.01 198.99 113.01 201.48 114.08
  C 205.19 115.68 203.90 120.77 202.38 123.34
  Q 196.87 132.60 192.57 142.50
  C 191.87 144.12 191.31 145.72 191.56 147.56
  C 192.99 158.32 192.58 169.88 186.73 179.25
  A 1.19 1.18 -54.1 0 0 186.97 180.79
  Q 193.18 186.05 197.57 192.91
  A 1.62 1.58 32.1 0 1 197.82 193.95
  L 195.83 215.74
  A 0.98 0.98 0.0 0 1 194.38 216.50
  Q 187.17 212.50 181.04 206.98
  Q 180.69 206.67 180.60 207.13
  Q 176.73 225.83 181.74 244.24
  C 182.03 245.30 181.92 246.72 182.21 247.90
  Q 187.30 268.31 194.69 287.95
  Z"
/>
<path fill="#1c5aa1" d="
  M 198.97 115.97
  L 193.84 128.92
  Q 190.24 136.20 186.71 143.51
  Q 185.72 145.57 183.96 146.83
  Q 179.56 149.96 174.72 152.52
  Q 174.28 152.75 174.25 153.25
  Q 173.78 160.63 173.30 168.02
  C 173.22 169.28 173.73 169.72 174.42 170.62
  Q 178.78 176.28 184.37 180.73
  L 194.96 191.82
  A 3.59 3.59 0.0 0 1 195.95 194.51
  L 194.89 212.76
  Q 194.78 214.60 193.17 213.71
  Q 185.93 209.74 179.72 203.16
  Q 170.90 198.13 166.58 189.20
  Q 166.35 188.72 166.22 189.24
  Q 165.02 194.05 164.98 197.75
  Q 164.83 213.24 166.13 230.94
  C 166.98 242.41 169.26 252.23 173.08 262.47
  C 179.75 280.32 187.99 302.44 199.42 323.29
  C 201.41 326.92 203.99 330.32 206.28 333.89
  Q 206.54 334.29 207.01 334.24
  L 217.77 333.18
  Q 218.46 333.12 218.06 332.55
  L 211.23 322.97
  Q 229.67 315.99 248.75 313.97
  Q 252.39 313.59 260.60 313.80
  C 273.31 314.13 285.18 318.26 297.64 319.87
  Q 312.73 321.81 327.92 322.68
  C 341.86 323.48 349.76 324.19 360.70 321.03
  C 364.38 319.97 368.14 318.06 371.80 316.27
  C 379.08 312.72 389.64 312.46 397.50 313.34
  C 406.83 314.38 413.14 320.65 422.66 319.78
  Q 424.59 319.60 430.27 318.19
  Q 446.81 314.08 461.00 314.78
  C 466.92 315.07 473.16 318.59 478.72 322.11
  C 482.99 324.82 498.07 336.07 497.18 341.54
  C 495.75 350.44 479.56 351.04 473.05 351.04
  Q 448.25 351.05 423.49 349.71
  C 387.76 347.77 351.51 350.20 316.32 350.60
  Q 266.02 351.16 215.75 352.90
  Q 205.46 353.25 195.76 353.18
  Q 159.25 352.92 122.74 352.62
  Q 109.63 352.52 102.76 352.17
  C 82.91 351.16 66.51 347.20 48.25 344.09
  A 0.88 0.88 0.0 0 1 47.99 342.45
  C 56.82 337.79 64.99 334.79 75.41 333.16
  Q 90.25 330.85 105.11 328.81
  Q 117.74 327.08 124.01 327.20
  Q 136.58 327.43 148.98 329.51
  Q 151.04 329.85 152.93 329.17
  C 160.42 326.46 167.87 322.03 173.70 319.57
  Q 174.08 319.41 173.80 319.11
  Q 171.57 316.70 169.38 314.27
  C 165.77 310.26 162.86 305.30 159.59 300.90
  C 155.48 295.37 152.80 290.19 149.63 284.39
  C 144.29 274.62 140.58 264.17 138.11 253.34
  C 135.79 243.13 134.05 236.07 132.37 227.36
  C 131.70 223.82 129.47 217.36 124.47 217.71
  C 121.79 217.89 119.68 220.80 117.88 222.57
  Q 116.99 223.44 116.94 222.19
  C 116.53 212.68 120.62 205.84 127.05 199.19
  C 129.02 197.15 132.19 195.30 134.52 192.97
  Q 134.89 192.60 134.93 192.08
  C 135.66 179.52 136.82 168.43 142.19 158.57
  C 145.02 153.36 149.62 148.68 153.45 143.70
  C 155.55 140.98 157.50 139.13 160.73 137.48
  C 164.05 135.80 167.72 133.46 170.99 132.77
  C 176.17 131.68 179.64 133.10 184.19 129.15
  Q 191.18 123.06 197.22 116.04
  Q 197.62 115.58 198.00 115.52
  Q 198.59 115.43 198.97 115.97
  Z
  M 247.21 327.95
  C 257.20 323.33 268.61 320.60 279.95 320.09
  Q 280.53 320.07 280.55 319.49
  L 280.57 319.08
  A 0.49 0.49 0.0 0 0 280.06 318.57
  Q 262.57 319.20 246.83 326.58
  C 241.46 329.11 237.65 332.37 233.98 336.80
  A 0.45 0.45 0.0 0 0 234.19 337.52
  L 234.81 337.71
  Q 235.27 337.85 235.57 337.46
  Q 240.45 331.07 247.21 327.95
  Z
  M 368.51 327.74
  C 374.23 324.56 382.55 321.26 388.99 322.79
  Q 392.57 323.63 400.53 326.39
  Q 401.15 326.60 401.54 326.51
  A 0.63 0.63 0.0 0 0 401.64 325.30
  C 395.74 322.99 389.14 320.46 382.94 321.10
  Q 374.35 321.99 367.31 327.31
  A 0.39 0.38 -59.2 0 0 367.48 328.00
  Q 367.94 328.06 368.51 327.74
  Z
  M 444.04 326.30
  C 451.99 321.72 460.65 322.19 469.19 325.10
  C 475.85 327.38 482.33 328.36 486.68 334.57
  Q 487.15 335.23 487.86 334.65
  Q 488.23 334.37 488.00 333.96
  Q 485.62 329.90 481.29 327.99
  C 468.75 322.48 456.62 318.23 443.36 324.71
  A 0.96 0.96 0.0 0 0 442.84 325.39
  Q 442.63 326.45 443.42 326.49
  Q 443.69 326.51 444.04 326.30
  Z
  M 297.37 329.21
  C 304.83 329.64 311.38 332.51 318.30 334.84
  A 0.67 0.66 20.8 0 0 319.13 334.47
  L 319.30 334.08
  A 0.52 0.51 20.8 0 0 318.98 333.39
  C 312.80 331.38 306.32 328.60 300.15 327.98
  Q 287.98 326.76 276.10 330.25
  Q 275.22 330.51 275.73 331.30
  A 0.71 0.70 -24.3 0 0 276.51 331.59
  Q 286.66 328.59 297.37 329.21
  Z
  M 351.87 335.87
  C 355.30 335.09 371.83 334.24 376.19 337.04
  Q 380.37 339.72 384.34 342.69
  A 0.53 0.53 0.0 0 0 385.05 341.92
  Q 378.05 333.96 367.02 333.71
  Q 356.57 333.47 346.43 335.21
  A 0.64 0.64 0.0 0 0 346.53 336.48
  Q 349.08 336.51 351.87 335.87
  Z
  M 423.38 335.94
  C 432.79 334.54 441.42 337.78 450.20 340.06
  A 0.62 0.61 16.2 0 0 450.94 339.66
  L 451.07 339.25
  Q 451.29 338.60 450.62 338.45
  C 444.18 337.06 437.07 334.48 431.06 334.20
  Q 416.98 333.56 404.51 340.78
  Q 404.00 341.08 404.39 341.52
  Q 404.65 341.81 405.14 341.88
  Q 405.48 341.93 405.90 341.70
  Q 414.14 337.32 423.38 335.94
  Z
  M 175.37 338.87
  C 186.87 337.33 197.66 339.60 208.74 340.59
  Q 209.23 340.64 209.35 340.16
  L 209.43 339.81
  A 0.52 0.51 10.4 0 0 208.99 339.18
  C 199.78 338.13 189.56 336.45 180.97 336.81
  C 171.01 337.22 161.90 340.26 152.70 343.11
  A 0.84 0.82 89.5 0 0 152.13 343.70
  Q 151.98 344.26 152.41 344.44
  Q 152.66 344.55 153.07 344.42
  Q 165.97 340.14 175.37 338.87
  Z
  M 104.62 338.87
  C 113.30 337.82 120.91 339.70 129.15 341.44
  A 0.71 0.70 9.1 0 0 129.99 340.84
  Q 130.04 340.47 129.77 340.15
  Q 129.57 339.93 129.16 339.85
  C 123.13 338.65 116.67 337.06 110.87 337.02
  C 100.79 336.95 91.78 340.28 82.49 343.11
  Q 81.98 343.26 82.05 343.78
  Q 82.09 344.13 82.32 344.30
  Q 82.59 344.49 83.18 344.29
  Q 96.68 339.84 104.62 338.87
  Z
  M 244.70 341.10
  C 260.06 339.36 276.28 337.73 292.33 340.25
  Q 307.76 342.68 322.93 346.48
  A 0.47 0.46 9.4 0 0 323.51 346.07
  Q 323.52 345.94 323.54 345.81
  Q 323.60 345.28 323.09 345.11
  Q 319.61 343.93 316.00 343.24
  C 301.38 340.41 287.07 336.85 272.50 337.43
  Q 258.55 337.98 244.67 339.56
  Q 244.24 339.60 244.10 339.84
  Q 243.91 340.14 244.05 340.66
  A 0.60 0.59 -10.5 0 0 244.70 341.10
  Z
  M 109.37 347.52
  C 121.72 342.90 132.84 345.56 145.24 347.81
  Q 146.09 347.96 146.38 347.18
  A 0.47 0.47 0.0 0 0 146.03 346.56
  C 133.36 343.81 122.39 341.74 110.20 345.39
  Q 108.94 345.77 108.57 346.69
  A 0.63 0.63 0.0 0 0 109.37 347.52
  Z"
/>
<path fill="#e7302a" d="
  M 75.77 178.50
  L 90.34 178.49
  A 0.41 0.41 0.0 0 1 90.75 178.90
  L 90.84 186.10
  A 0.41 0.41 0.0 0 1 90.43 186.51
  L 65.79 186.50
  A 0.41 0.41 0.0 0 1 65.38 186.09
  L 65.37 127.41
  A 0.41 0.41 0.0 0 1 65.78 127.00
  L 74.89 127.00
  A 0.41 0.41 0.0 0 1 75.30 127.41
  L 75.36 178.09
  A 0.41 0.41 0.0 0 0 75.77 178.50
  Z"
/>
<path fill="#e7302a" d="
  M 116.53 177.00
  L 105.06 177.00
  A 0.44 0.44 0.0 0 0 104.63 177.37
  L 103.13 186.14
  A 0.44 0.44 0.0 0 1 102.70 186.51
  L 93.31 186.51
  A 0.44 0.44 0.0 0 1 92.88 185.98
  L 104.95 127.35
  A 0.44 0.44 0.0 0 1 105.38 127.00
  L 116.43 127.01
  A 0.44 0.44 0.0 0 1 116.86 127.36
  L 128.50 186.00
  A 0.44 0.44 0.0 0 1 128.06 186.53
  L 119.04 186.51
  A 0.44 0.44 0.0 0 1 118.61 186.15
  L 116.97 177.36
  A 0.44 0.44 0.0 0 0 116.53 177.00
  Z
  M 110.81 142.91
  A 0.30 0.30 0.0 0 0 110.22 142.92
  L 106.34 169.17
  A 0.30 0.30 0.0 0 0 106.64 169.51
  L 115.24 169.50
  A 0.30 0.30 0.0 0 0 115.54 169.15
  L 110.81 142.91
  Z"
/>
<path fill="#e7302a" d="
  M 209.99 127.30
  A 0.30 0.30 0.0 0 1 210.29 127.00
  L 225.44 127.00
  A 16.91 15.99 0.0 0 1 242.35 142.99
  L 242.35 170.49
  A 16.91 15.99 0.0 0 1 225.44 186.48
  L 210.29 186.48
  A 0.30 0.30 0.0 0 1 209.99 186.18
  L 209.99 127.30
  Z
  M 219.92 135.94
  L 219.84 178.00
  A 0.49 0.49 0.0 0 0 220.33 178.49
  L 223.30 178.50
  A 9.02 8.54 0.1 0 0 232.34 169.97
  L 232.38 144.01
  A 9.02 8.54 0.1 0 0 223.38 135.46
  L 220.41 135.45
  A 0.49 0.49 0.0 0 0 219.92 135.94
  Z"
/>
<path fill="#e7302a" d="
  M 268.65 177.00
  L 256.96 177.00
  A 0.31 0.31 0.0 0 0 256.66 177.26
  L 255.10 186.25
  A 0.31 0.31 0.0 0 1 254.80 186.51
  L 245.61 186.51
  A 0.31 0.31 0.0 0 1 245.30 186.14
  L 257.09 127.25
  A 0.31 0.31 0.0 0 1 257.39 127.00
  L 268.39 127.00
  A 0.31 0.31 0.0 0 1 268.69 127.25
  L 281.08 186.13
  A 0.31 0.31 0.0 0 1 280.78 186.50
  L 270.93 186.51
  A 0.31 0.31 0.0 0 1 270.62 186.26
  L 268.96 177.25
  A 0.31 0.31 0.0 0 0 268.65 177.00
  Z
  M 258.20 169.14
  A 0.31 0.31 0.0 0 0 258.51 169.51
  L 267.73 169.49
  A 0.31 0.31 0.0 0 0 268.03 169.13
  L 263.38 143.25
  A 0.31 0.31 0.0 0 0 262.77 143.25
  L 258.20 169.14
  Z"
/>
<path fill="#e7302a" d="
  M 299.82 178.99
  C 303.48 179.33 306.75 176.68 306.75 172.80
  Q 306.76 150.17 306.76 127.51
  Q 306.76 127.00 307.27 127.00
  L 315.96 127.00
  Q 316.44 127.00 316.44 127.48
  Q 316.67 161.19 316.43 173.25
  C 316.19 185.91 302.23 189.74 292.47 185.39
  C 286.14 182.58 284.14 177.94 284.10 171.24
  Q 283.96 149.38 284.03 127.49
  Q 284.03 127.00 284.52 127.00
  L 293.75 127.00
  Q 294.31 127.00 294.31 127.56
  Q 294.30 149.41 294.31 171.25
  C 294.31 174.95 295.66 178.61 299.82 178.99
  Z"
/>
<path fill="#e7302a" d="
  M 333.91 167.50
  L 333.94 186.03
  Q 333.94 186.50 333.47 186.50
  L 324.52 186.50
  Q 324.03 186.50 324.03 186.02
  L 324.03 127.53
  Q 324.03 127.11 324.45 127.10
  C 334.29 126.75 348.17 125.05 352.95 134.58
  Q 354.44 137.54 354.44 143.03
  C 354.44 148.20 355.15 155.24 352.64 159.64
  C 348.98 166.03 341.59 167.47 334.51 166.94
  Q 333.91 166.89 333.91 167.50
  Z
  M 333.90 135.95
  L 333.82 158.49
  A 0.51 0.51 0.0 0 0 334.33 159.00
  L 337.07 159.01
  A 6.97 6.30 0.2 0 0 344.06 152.74
  L 344.10 141.78
  A 6.97 6.30 0.2 0 0 337.15 135.45
  L 334.41 135.44
  A 0.51 0.51 0.0 0 0 333.90 135.95
  Z"
/>
<path fill="#e7302a" d="
  M 370.35 160.33
  L 370.32 186.18
  A 0.33 0.33 0.0 0 1 369.99 186.51
  L 361.01 186.51
  A 0.33 0.33 0.0 0 1 360.68 186.18
  L 360.68 127.33
  A 0.33 0.33 0.0 0 1 361.01 127.00
  L 369.99 127.00
  A 0.33 0.33 0.0 0 1 370.32 127.33
  L 370.32 151.68
  A 0.33 0.33 0.0 0 0 370.65 152.01
  L 382.37 151.99
  A 0.33 0.33 0.0 0 0 382.70 151.66
  L 382.67 127.33
  A 0.33 0.33 0.0 0 1 383.00 127.00
  L 391.98 127.00
  A 0.33 0.33 0.0 0 1 392.31 127.33
  L 392.31 186.17
  A 0.33 0.33 0.0 0 1 391.98 186.50
  L 383.00 186.51
  A 0.33 0.33 0.0 0 1 382.67 186.18
  L 382.70 160.33
  A 0.33 0.33 0.0 0 0 382.37 160.00
  L 370.68 160.00
  A 0.33 0.33 0.0 0 0 370.35 160.33
  Z"
/>
<rect fill="#e7302a" x="400.04" y="127.00" width="10.28" height="59.50" rx="0.32"/>
<path fill="#e7302a" d="
  M 427.47 148.27
  L 427.60 185.82
  A 0.67 0.67 0.0 0 1 426.93 186.50
  L 418.52 186.50
  Q 418.04 186.50 418.04 186.02
  L 418.03 127.49
  Q 418.03 127.00 418.51 127.00
  L 428.30 127.00
  Q 428.83 127.00 429.00 127.51
  Q 434.80 145.51 440.58 163.48
  Q 440.84 164.29 441.26 166.90
  Q 441.31 167.16 441.55 167.06
  Q 441.99 166.90 441.99 166.44
  Q 441.93 146.96 441.83 127.48
  Q 441.83 127.00 442.31 127.00
  L 451.00 127.00
  Q 451.50 127.00 451.50 127.50
  L 451.51 186.00
  Q 451.51 186.51 451.00 186.51
  L 441.03 186.50
  A 0.70 0.69 80.7 0 1 440.37 186.02
  L 427.91 148.20
  Q 427.46 146.84 427.47 148.27
  Z"
/>
<path fill="#e7302a" d="
  M 469.36 159.34
  L 469.37 178.66
  A 0.34 0.34 0.0 0 0 469.71 179.00
  L 485.44 179.00
  A 0.34 0.34 0.0 0 1 485.78 179.34
  L 485.88 186.16
  A 0.34 0.34 0.0 0 1 485.54 186.50
  L 459.42 186.51
  A 0.34 0.34 0.0 0 1 459.08 186.17
  L 459.06 127.34
  A 0.34 0.34 0.0 0 1 459.40 127.00
  L 485.56 127.00
  A 0.34 0.34 0.0 0 1 485.90 127.34
  L 485.92 134.66
  A 0.34 0.34 0.0 0 1 485.58 135.00
  L 469.66 135.00
  A 0.34 0.34 0.0 0 0 469.32 135.34
  L 469.38 151.16
  A 0.34 0.34 0.0 0 0 469.72 151.50
  L 483.66 151.49
  A 0.34 0.34 0.0 0 1 484.00 151.83
  L 484.00 158.66
  A 0.34 0.34 0.0 0 1 483.66 159.00
  L 469.70 159.00
  A 0.34 0.34 0.0 0 0 469.36 159.34
  Z"
/>
<path fill="#ffffff" d="
  M 196.23 131.21
  Q 195.64 132.69 195.03 134.41
  C 193.04 140.04 189.79 142.71 190.09 149.41
  C 190.44 157.45 191.94 165.12 188.04 173.10
  Q 186.35 176.56 184.37 180.73
  Q 178.78 176.28 174.42 170.62
  C 173.73 169.72 173.22 169.28 173.30 168.02
  Q 173.78 160.63 174.25 153.25
  Q 174.28 152.75 174.72 152.52
  Q 179.56 149.96 183.96 146.83
  Q 185.72 145.57 186.71 143.51
  Q 190.24 136.20 193.84 128.92
  Q 195.34 127.97 196.23 131.21
  Z"
/>
<path fill="#ffffff" d="
  M 179.72 203.16
  Q 176.62 220.99 178.37 233.38
  Q 181.92 258.41 193.98 287.85
  Q 197.44 300.58 205.52 311.74
  Q 209.08 317.11 211.23 322.97
  L 218.06 332.55
  Q 218.46 333.12 217.77 333.18
  L 207.01 334.24
  Q 206.54 334.29 206.28 333.89
  C 203.99 330.32 201.41 326.92 199.42 323.29
  C 187.99 302.44 179.75 280.32 173.08 262.47
  C 169.26 252.23 166.98 242.41 166.13 230.94
  Q 164.83 213.24 164.98 197.75
  Q 165.02 194.05 166.22 189.24
  Q 166.35 188.72 166.58 189.20
  Q 170.90 198.13 179.72 203.16
  Z"
/>
<rect fill="#e7302a" x="211.50" y="223.05" width="275.58" height="1.58" rx="0.51"/>
<path fill="#e7302a" d="
  M 218.91 241.33
  C 217.15 239.55 213.84 238.70 212.50 236.56
  Q 211.04 234.24 212.01 231.72
  C 213.67 227.41 222.48 227.87 221.93 234.19
  Q 221.88 234.86 221.20 234.87
  L 219.31 234.88
  A 0.52 0.52 0.0 0 1 218.81 234.22
  Q 219.37 232.33 217.74 231.23
  A 1.79 1.79 0.0 0 0 214.96 232.88
  L 215.15 234.91
  A 0.86 0.85 11.8 0 0 215.60 235.59
  C 217.80 236.75 220.70 238.09 221.76 240.33
  Q 223.05 243.06 221.18 245.44
  C 218.63 248.67 210.89 247.19 211.76 241.76
  A 1.53 1.52 -39.9 0 1 214.79 242.03
  L 214.76 243.48
  A 0.91 0.90 21.0 0 0 215.08 244.19
  Q 216.63 245.48 218.59 244.21
  A 1.86 1.86 0.0 0 0 218.91 241.33
  Z"
/>
<path fill="#e7302a" d="
  M 230.39 243.02
  L 230.40 229.61
  Q 230.40 229.00 231.01 229.00
  L 233.22 229.00
  Q 233.73 229.00 233.73 229.50
  Q 233.78 236.01 233.72 242.50
  C 233.68 246.93 226.78 248.75 224.57 245.39
  C 222.91 242.86 223.73 232.87 223.75 229.52
  Q 223.75 229.00 224.27 229.00
  L 225.77 229.00
  Q 226.29 229.00 226.29 229.52
  L 226.30 242.60
  A 1.91 1.90 8.1 0 0 227.68 244.43
  Q 228.91 244.78 229.90 244.02
  A 1.27 1.27 0.0 0 0 230.39 243.02
  Z"
/>
<path fill="#e7302a" d="
  M 239.00 241.48
  L 239.00 246.49
  Q 239.00 246.99 238.51 246.99
  L 236.40 246.99
  Q 235.80 247.00 235.80 246.40
  L 235.83 229.74
  Q 235.83 229.21 236.35 229.12
  C 241.89 228.13 245.70 229.36 245.23 235.80
  Q 244.83 241.32 239.66 240.87
  A 0.61 0.61 0.0 0 0 239.00 241.48
  Z
  M 239.01 231.66
  L 238.97 238.76
  A 0.25 0.25 0.0 0 0 239.21 239.01
  L 239.68 239.01
  A 2.28 2.06 0.4 0 0 241.98 236.97
  L 242.00 233.49
  A 2.28 2.06 0.4 0 0 239.74 231.41
  L 239.27 231.41
  A 0.25 0.25 0.0 0 0 239.01 231.66
  Z"
/>
<path fill="#e7302a" d="
  M 250.48 231.66
  L 250.52 236.04
  A 0.46 0.46 0.0 0 0 250.98 236.50
  L 254.50 236.50
  A 0.46 0.46 0.0 0 1 254.96 236.96
  L 254.98 238.35
  A 0.46 0.46 0.0 0 1 254.51 238.81
  L 250.97 238.78
  A 0.46 0.46 0.0 0 0 250.50 239.24
  L 250.50 244.32
  A 0.46 0.46 0.0 0 0 250.96 244.78
  L 255.08 244.78
  A 0.46 0.46 0.0 0 1 255.54 245.25
  L 255.52 246.55
  A 0.46 0.46 0.0 0 1 255.06 247.00
  L 247.70 247.00
  A 0.46 0.46 0.0 0 1 247.24 246.54
  L 247.27 229.46
  A 0.46 0.46 0.0 0 1 247.73 229.00
  L 255.09 229.00
  A 0.46 0.46 0.0 0 1 255.55 229.48
  L 255.49 230.75
  A 0.46 0.46 0.0 0 1 255.03 231.19
  L 250.94 231.20
  A 0.46 0.46 0.0 0 0 250.48 231.66
  Z"
/>
<path fill="#e7302a" d="
  M 260.49 240.97
  L 260.56 246.33
  Q 260.57 246.97 259.93 246.98
  L 257.88 247.00
  A 0.63 0.63 0.0 0 1 257.24 246.37
  L 257.26 229.52
  Q 257.26 229.14 257.65 229.10
  C 260.98 228.75 266.42 228.41 267.26 232.48
  Q 268.07 236.36 265.84 239.25
  A 0.94 0.92 55.7 0 0 265.69 240.07
  L 267.58 246.50
  Q 267.73 247.01 267.20 247.01
  L 264.96 246.99
  Q 264.42 246.99 264.28 246.46
  L 262.65 240.66
  A 1.10 1.10 0.0 0 0 260.49 240.97
  Z
  M 260.49 231.70
  L 260.41 237.47
  A 0.50 0.50 0.0 0 0 260.90 237.98
  L 261.90 238.00
  A 2.08 1.94 0.8 0 0 264.01 236.08
  L 264.05 233.19
  A 2.08 1.94 0.8 0 0 262.00 231.22
  L 261.00 231.20
  A 0.50 0.50 0.0 0 0 260.49 231.70
  Z"
/>
<path fill="#e7302a" d="
  M 280.54 235.98
  L 278.58 245.73
  A 1.83 1.83 0.0 0 1 275.00 245.76
  L 272.55 234.74
  A 0.16 0.16 0.0 0 0 272.24 234.78
  L 272.27 246.49
  Q 272.28 247.00 271.76 247.00
  L 269.87 247.00
  A 0.63 0.62 -90.0 0 1 269.25 246.37
  L 269.26 229.49
  Q 269.26 229.00 269.76 229.00
  L 273.14 229.00
  Q 273.80 229.00 273.93 229.65
  L 276.17 240.76
  Q 276.77 243.79 277.37 240.76
  L 279.58 229.53
  A 0.67 0.65 -84.0 0 1 280.22 229.00
  L 283.24 229.00
  Q 283.74 229.00 283.74 229.49
  L 283.77 246.37
  Q 283.77 247.00 283.13 247.00
  L 281.62 246.99
  Q 281.00 246.99 281.00 246.37
  L 281.10 236.04
  A 0.28 0.28 0.0 0 0 280.54 235.98
  Z"
/>
<path fill="#e7302a" d="
  M 288.49 244.58
  L 288.23 246.43
  Q 288.15 247.00 287.57 247.00
  L 285.55 247.00
  A 0.57 0.57 0.0 0 1 284.99 246.30
  L 288.58 230.26
  A 2.18 2.18 0.0 0 1 292.84 230.26
  L 296.37 246.35
  A 0.53 0.52 -6.5 0 1 295.85 246.99
  L 293.61 246.98
  A 0.62 0.61 90.0 0 1 293.00 246.36
  L 292.99 244.64
  Q 292.99 244.04 292.39 244.03
  L 289.17 243.99
  Q 288.57 243.98 288.49 244.58
  Z
  M 291.05 235.50
  Q 290.67 233.63 290.32 235.50
  L 289.24 241.23
  Q 289.14 241.80 289.72 241.79
  L 291.64 241.77
  Q 292.31 241.76 292.17 241.11
  L 291.05 235.50
  Z"
/>
<path fill="#e7302a" d="
  M 300.49 241.04
  L 300.57 246.32
  Q 300.58 246.97 299.93 246.98
  L 297.90 247.00
  Q 297.29 247.00 297.28 246.39
  L 297.24 229.56
  Q 297.24 229.19 297.60 229.14
  C 301.03 228.68 306.70 228.52 307.40 232.71
  Q 308.03 236.44 305.85 239.21
  Q 305.55 239.59 305.69 240.06
  L 307.54 246.35
  Q 307.73 247.01 307.05 247.01
  L 304.96 246.99
  Q 304.41 246.98 304.27 246.46
  L 302.67 240.72
  A 1.11 1.11 0.0 0 0 300.49 241.04
  Z
  M 300.51 231.56
  L 300.43 237.64
  A 0.35 0.35 0.0 0 0 300.78 237.99
  L 301.90 238.01
  A 2.09 1.97 0.7 0 0 304.01 236.06
  L 304.05 233.22
  A 2.09 1.97 0.7 0 0 301.98 231.23
  L 300.86 231.21
  A 0.35 0.35 0.0 0 0 300.51 231.56
  Z"
/>
<path fill="#e7302a" d="
  M 316.65 243.02
  L 316.78 240.96
  Q 316.81 240.48 317.29 240.49
  L 319.21 240.51
  Q 319.65 240.51 319.71 240.95
  C 320.60 247.15 312.43 249.18 310.23 244.77
  Q 309.48 243.27 309.49 239.61
  C 309.51 235.45 308.44 228.32 315.29 229.03
  Q 319.60 229.47 319.98 234.38
  Q 320.03 234.99 319.42 234.99
  L 317.28 235.00
  Q 316.60 235.00 316.70 234.34
  Q 317.11 231.68 314.58 231.46
  A 2.12 2.12 0.0 0 0 312.29 233.52
  C 312.23 236.02 311.26 243.22 314.06 244.55
  A 1.82 1.82 0.0 0 0 316.65 243.02
  Z"
/>
<path fill="#e7302a" d="
  M 325.00 239.42
  L 325.00 246.57
  A 0.42 0.42 0.0 0 1 324.58 246.99
  L 322.22 246.99
  A 0.42 0.42 0.0 0 1 321.80 246.57
  L 321.82 229.42
  A 0.42 0.42 0.0 0 1 322.24 229.00
  L 324.58 229.00
  A 0.42 0.42 0.0 0 1 325.00 229.42
  L 325.00 236.19
  A 0.42 0.42 0.0 0 0 325.43 236.61
  L 328.04 236.52
  A 0.42 0.42 0.0 0 0 328.45 236.10
  L 328.42 229.41
  A 0.42 0.42 0.0 0 1 328.84 228.99
  L 331.26 229.01
  A 0.42 0.42 0.0 0 1 331.68 229.43
  L 331.71 246.57
  A 0.42 0.42 0.0 0 1 331.29 246.99
  L 328.82 247.01
  A 0.42 0.42 0.0 0 1 328.39 246.58
  L 328.48 239.43
  A 0.42 0.42 0.0 0 0 328.06 239.01
  L 325.42 239.00
  A 0.42 0.42 0.0 0 0 325.00 239.42
  Z"
/>
<path fill="#e7302a" d="
  M 337.02 239.15
  L 336.98 244.38
  A 0.40 0.40 0.0 0 0 337.39 244.79
  L 341.61 244.76
  A 0.40 0.40 0.0 0 1 342.01 245.16
  L 342.00 246.60
  A 0.40 0.40 0.0 0 1 341.60 247.00
  L 334.20 247.00
  A 0.40 0.40 0.0 0 1 333.80 246.60
  L 333.82 229.40
  A 0.40 0.40 0.0 0 1 334.22 229.00
  L 341.61 229.00
  A 0.40 0.40 0.0 0 1 342.01 229.41
  L 341.99 230.82
  A 0.40 0.40 0.0 0 1 341.58 231.22
  L 337.40 231.18
  A 0.40 0.40 0.0 0 0 337.00 231.58
  L 337.01 236.16
  A 0.40 0.40 0.0 0 0 337.42 236.56
  L 340.86 236.47
  A 0.40 0.40 0.0 0 1 341.27 236.87
  L 341.27 238.56
  A 0.40 0.40 0.0 0 1 340.85 238.96
  L 337.44 238.75
  A 0.40 0.40 0.0 0 0 337.02 239.15
  Z"
/>
<path fill="#e7302a" d="
  M 352.01 239.13
  L 352.00 244.38
  A 0.40 0.40 0.0 0 0 352.40 244.78
  L 356.61 244.76
  A 0.40 0.40 0.0 0 1 357.01 245.16
  L 357.01 246.60
  A 0.40 0.40 0.0 0 1 356.61 247.00
  L 349.20 247.00
  A 0.40 0.40 0.0 0 1 348.80 246.60
  L 348.79 229.40
  A 0.40 0.40 0.0 0 1 349.19 229.00
  L 356.64 229.00
  A 0.40 0.40 0.0 0 1 357.04 229.41
  L 356.99 230.83
  A 0.40 0.40 0.0 0 1 356.59 231.22
  L 352.39 231.19
  A 0.40 0.40 0.0 0 0 351.99 231.59
  L 352.01 236.15
  A 0.40 0.40 0.0 0 0 352.42 236.55
  L 355.85 236.48
  A 0.40 0.40 0.0 0 1 356.26 236.88
  L 356.28 238.47
  A 0.40 0.40 0.0 0 1 355.86 238.87
  L 352.43 238.73
  A 0.40 0.40 0.0 0 0 352.01 239.13
  Z"
/>
<path fill="#e7302a" d="
  M 365.12 231.91
  L 365.13 246.56
  A 0.44 0.44 0.0 0 1 364.69 247.00
  L 362.41 247.01
  A 0.44 0.44 0.0 0 1 361.97 246.57
  L 361.97 231.90
  A 0.44 0.44 0.0 0 0 361.52 231.46
  L 358.88 231.55
  A 0.44 0.44 0.0 0 1 358.42 231.12
  L 358.37 229.46
  A 0.44 0.44 0.0 0 1 358.81 229.00
  L 368.36 229.00
  A 0.44 0.44 0.0 0 1 368.80 229.48
  L 368.63 231.13
  A 0.44 0.44 0.0 0 1 368.18 231.52
  L 365.57 231.47
  A 0.44 0.44 0.0 0 0 365.12 231.91
  Z"
/>
<path fill="#e7302a" d="
  M 377.48 241.03
  L 377.57 246.31
  Q 377.58 246.96 376.94 246.97
  L 374.88 247.01
  Q 374.24 247.02 374.24 246.38
  L 374.26 229.51
  Q 374.26 229.06 374.71 229.04
  C 379.04 228.81 383.91 227.90 383.93 234.25
  Q 383.93 237.48 382.90 239.20
  Q 382.63 239.64 382.74 240.14
  L 384.16 246.38
  Q 384.31 247.06 383.61 247.02
  L 382.01 246.93
  Q 381.37 246.90 381.21 246.29
  L 379.69 240.72
  A 1.13 1.12 36.9 0 0 377.48 241.03
  Z
  M 377.79 237.85
  L 380.64 237.82
  A 0.30 0.30 0.0 0 0 380.94 237.52
  L 380.89 232.60
  A 1.59 1.46 -0.6 0 0 379.29 231.16
  L 379.01 231.16
  A 1.59 1.46 -0.6 0 0 377.43 232.64
  L 377.48 237.56
  A 0.30 0.30 0.0 0 0 377.79 237.85
  Z"
/>
<path fill="#e7302a" d="
  M 389.98 244.76
  L 394.55 244.79
  A 0.46 0.46 0.0 0 1 395.01 245.25
  L 395.01 246.54
  A 0.46 0.46 0.0 0 1 394.55 247.00
  L 386.71 247.00
  A 0.46 0.46 0.0 0 1 386.25 246.54
  L 386.27 229.46
  A 0.46 0.46 0.0 0 1 386.73 229.00
  L 394.57 229.00
  A 0.46 0.46 0.0 0 1 395.03 229.48
  L 394.98 230.80
  A 0.46 0.46 0.0 0 1 394.51 231.24
  L 389.97 231.20
  A 0.46 0.46 0.0 0 0 389.51 231.66
  L 389.51 236.05
  A 0.46 0.46 0.0 0 0 389.97 236.51
  L 393.81 236.47
  A 0.46 0.46 0.0 0 1 394.28 236.94
  L 394.27 238.42
  A 0.46 0.46 0.0 0 1 393.80 238.88
  L 389.99 238.80
  A 0.46 0.46 0.0 0 0 389.52 239.26
  L 389.52 244.30
  A 0.46 0.46 0.0 0 0 389.98 244.76
  Z"
/>
<path fill="#e7302a" d="
  M 398.79 243.45
  A 1.95 1.95 0.0 0 0 402.64 244.04
  Q 402.94 242.52 402.69 241.03
  A 0.98 0.97 5.1 0 0 402.04 240.26
  C 399.02 239.21 396.32 237.03 396.25 233.65
  C 396.11 227.45 405.98 226.97 406.02 234.20
  Q 406.03 234.84 405.39 234.84
  L 403.36 234.82
  A 0.52 0.52 0.0 0 1 402.86 234.17
  Q 403.36 232.17 401.78 231.31
  A 1.90 1.89 19.9 0 0 399.01 232.60
  C 398.38 235.84 401.85 236.89 404.07 238.19
  C 406.46 239.58 406.68 243.43 404.98 245.48
  C 402.11 248.96 395.66 247.02 396.31 241.41
  Q 396.38 240.86 396.93 240.86
  L 398.31 240.83
  A 0.68 0.68 0.0 0 1 398.99 241.58
  L 398.79 243.45
  Z"
/>
<path fill="#e7302a" d="
  M 413.12 231.98
  L 413.13 246.49
  A 0.51 0.51 0.0 0 1 412.62 247.00
  L 410.93 247.01
  A 0.51 0.51 0.0 0 1 410.42 246.50
  L 410.49 231.99
  A 0.51 0.51 0.0 0 0 409.97 231.48
  L 407.52 231.51
  A 0.51 0.51 0.0 0 1 407.01 231.03
  L 406.94 229.53
  A 0.51 0.51 0.0 0 1 407.45 229.00
  L 416.29 229.01
  A 0.51 0.51 0.0 0 1 416.80 229.58
  L 416.63 231.06
  A 0.51 0.51 0.0 0 1 416.12 231.51
  L 413.64 231.47
  A 0.51 0.51 0.0 0 0 413.12 231.98
  Z"
/>
<path fill="#e7302a" d="
  M 418.98 244.50
  L 418.94 246.28
  A 0.72 0.72 0.0 0 1 418.22 246.99
  L 416.07 247.00
  Q 415.36 247.00 415.51 246.31
  L 419.07 230.32
  A 2.19 2.19 0.0 0 1 423.35 230.32
  L 426.92 246.35
  A 0.53 0.53 0.0 0 1 426.40 247.00
  L 424.38 247.00
  Q 423.77 246.99 423.67 246.39
  L 423.37 244.58
  A 0.68 0.68 0.0 0 0 422.70 244.01
  L 419.50 244.00
  Q 418.99 243.99 418.98 244.50
  Z
  M 421.44 234.33
  A 0.16 0.16 0.0 0 0 421.12 234.33
  L 419.76 241.08
  Q 419.62 241.77 420.33 241.77
  L 422.10 241.78
  Q 422.72 241.79 422.62 241.18
  L 421.44 234.33
  Z"
/>
<path fill="#e7302a" d="
  M 434.45 242.90
  L 434.47 229.64
  Q 434.48 229.00 435.11 229.00
  L 437.19 229.00
  Q 437.74 229.00 437.75 229.55
  Q 437.83 235.20 437.75 240.81
  C 437.69 245.63 435.12 248.14 430.24 246.69
  C 428.05 246.04 427.57 244.51 427.54 242.27
  Q 427.43 235.92 427.51 229.56
  Q 427.52 229.01 428.07 229.01
  L 429.70 229.00
  Q 430.32 228.99 430.31 229.61
  Q 430.30 235.82 430.22 241.99
  Q 430.20 243.72 431.84 244.52
  A 1.81 1.81 0.0 0 0 434.45 242.90
  Z"
/>
<path fill="#e7302a" d="
  M 443.00 241.02
  L 443.00 246.50
  Q 443.00 247.00 442.50 247.00
  L 440.87 247.00
  A 0.63 0.62 -90.0 0 1 440.25 246.37
  L 440.28 229.51
  Q 440.28 229.11 440.68 229.08
  C 445.64 228.70 450.72 228.82 449.91 235.51
  Q 449.63 237.86 448.37 239.27
  Q 448.05 239.64 448.19 240.11
  L 450.09 246.37
  Q 450.28 247.00 449.62 247.00
  L 447.54 247.00
  Q 447.00 247.00 446.85 246.48
  L 445.13 240.71
  A 1.09 1.09 0.0 0 0 443.00 241.02
  Z
  M 443.01 231.46
  L 443.01 237.66
  A 0.35 0.35 0.0 0 0 443.36 238.01
  L 444.27 238.01
  A 2.42 2.36 -90.0 0 0 446.63 235.59
  L 446.63 233.53
  A 2.42 2.36 90.0 0 0 444.27 231.11
  L 443.36 231.11
  A 0.35 0.35 0.0 0 0 443.01 231.46
  Z"
/>
<path fill="#e7302a" d="
  M 458.47 245.24
  A 2.06 2.06 0.0 0 0 454.41 245.27
  L 454.21 246.55
  A 0.52 0.51 -86.2 0 1 453.70 247.00
  L 451.56 247.00
  A 0.56 0.56 0.0 0 1 451.01 246.31
  L 454.59 230.26
  A 1.91 1.91 0.0 0 1 458.32 230.25
  L 461.95 246.34
  A 0.54 0.54 0.0 0 1 461.42 247.00
  L 459.36 247.00
  A 0.72 0.71 85.2 0 1 458.66 246.40
  L 458.47 245.24
  Z
  M 456.37 235.06
  L 455.28 241.26
  A 0.47 0.47 0.0 0 0 455.75 241.81
  L 457.09 241.78
  Q 457.69 241.76 457.59 241.18
  L 456.58 235.06
  A 0.11 0.11 0.0 0 0 456.37 235.06
  Z"
/>
<path fill="#e7302a" d="
  M 471.04 239.66
  L 471.04 229.49
  Q 471.04 229.01 471.51 229.01
  L 473.70 229.00
  Q 474.16 229.00 474.17 229.45
  L 474.22 246.39
  A 0.61 0.60 -0.5 0 1 473.61 247.00
  L 471.50 247.00
  Q 470.81 247.00 470.63 246.33
  Q 469.24 241.28 467.28 236.41
  Q 466.82 235.27 466.84 236.50
  L 466.99 246.37
  Q 467.00 246.99 466.38 246.99
  L 464.41 247.00
  Q 463.82 247.00 463.82 246.41
  L 463.82 229.59
  Q 463.82 229.00 464.41 229.00
  L 466.86 229.00
  Q 467.46 229.00 467.63 229.58
  L 470.65 239.72
  A 0.20 0.20 0.0 0 0 471.04 239.66
  Z"
/>
<path fill="#e7302a" d="
  M 478.53 231.45
  L 475.93 231.51
  A 0.44 0.44 0.0 0 1 475.48 231.09
  L 475.43 229.46
  A 0.44 0.44 0.0 0 1 475.87 229.00
  L 485.08 229.00
  A 0.44 0.44 0.0 0 1 485.52 229.48
  L 485.37 231.11
  A 0.44 0.44 0.0 0 1 484.92 231.51
  L 482.59 231.47
  A 0.44 0.44 0.0 0 0 482.14 231.91
  L 482.12 246.56
  A 0.44 0.44 0.0 0 1 481.68 247.00
  L 479.42 247.00
  A 0.44 0.44 0.0 0 1 478.98 246.56
  L 478.98 231.89
  A 0.44 0.44 0.0 0 0 478.53 231.45
  Z"
/>
<path fill="#1c5aa1" d="
  M 193.98 287.85
  Q 194.28 287.41 194.69 287.95
  C 195.58 289.89 195.68 292.01 196.56 293.74
  Q 201.10 302.78 206.12 311.61
  Q 205.64 311.62 205.52 311.74
  Q 197.44 300.58 193.98 287.85
  Z"
/>
<path fill="#19304e" d="
  M 279.95 320.09
  C 268.61 320.60 257.20 323.33 247.21 327.95
  Q 240.45 331.07 235.57 337.46
  Q 235.27 337.85 234.81 337.71
  L 234.19 337.52
  A 0.45 0.45 0.0 0 1 233.98 336.80
  C 237.65 332.37 241.46 329.11 246.83 326.58
  Q 262.57 319.20 280.06 318.57
  A 0.49 0.49 0.0 0 1 280.57 319.08
  L 280.55 319.49
  Q 280.53 320.07 279.95 320.09
  Z"
/>
<path fill="#1c5aa1" d="
  M 304.76 319.27
  L 310.97 319.81
  Q 307.82 320.24 304.76 319.27
  Z"
/>
<path fill="#19304e" d="
  M 388.99 322.79
  C 382.55 321.26 374.23 324.56 368.51 327.74
  Q 367.94 328.06 367.48 328.00
  A 0.39 0.38 -59.2 0 1 367.31 327.31
  Q 374.35 321.99 382.94 321.10
  C 389.14 320.46 395.74 322.99 401.64 325.30
  A 0.63 0.63 0.0 0 1 401.54 326.51
  Q 401.15 326.60 400.53 326.39
  Q 392.57 323.63 388.99 322.79
  Z"
/>
<path fill="#19304e" d="
  M 469.19 325.10
  C 460.65 322.19 451.99 321.72 444.04 326.30
  Q 443.69 326.51 443.42 326.49
  Q 442.63 326.45 442.84 325.39
  A 0.96 0.96 0.0 0 1 443.36 324.71
  C 456.62 318.23 468.75 322.48 481.29 327.99
  Q 485.62 329.90 488.00 333.96
  Q 488.23 334.37 487.86 334.65
  Q 487.15 335.23 486.68 334.57
  C 482.33 328.36 475.85 327.38 469.19 325.10
  Z"
/>
<path fill="#19304e" d="
  M 297.37 329.21
  Q 286.66 328.59 276.51 331.59
  A 0.71 0.70 -24.3 0 1 275.73 331.30
  Q 275.22 330.51 276.10 330.25
  Q 287.98 326.76 300.15 327.98
  C 306.32 328.60 312.80 331.38 318.98 333.39
  A 0.52 0.51 20.8 0 1 319.30 334.08
  L 319.13 334.47
  A 0.67 0.66 20.8 0 1 318.30 334.84
  C 311.38 332.51 304.83 329.64 297.37 329.21
  Z"
/>
<path fill="#19304e" d="
  M 351.87 335.87
  Q 349.08 336.51 346.53 336.48
  A 0.64 0.64 0.0 0 1 346.43 335.21
  Q 356.57 333.47 367.02 333.71
  Q 378.05 333.96 385.05 341.92
  A 0.53 0.53 0.0 0 1 384.34 342.69
  Q 380.37 339.72 376.19 337.04
  C 371.83 334.24 355.30 335.09 351.87 335.87
  Z"
/>
<path fill="#19304e" d="
  M 423.38 335.94
  Q 414.14 337.32 405.90 341.70
  Q 405.48 341.93 405.14 341.88
  Q 404.65 341.81 404.39 341.52
  Q 404.00 341.08 404.51 340.78
  Q 416.98 333.56 431.06 334.20
  C 437.07 334.48 444.18 337.06 450.62 338.45
  Q 451.29 338.60 451.07 339.25
  L 450.94 339.66
  A 0.62 0.61 16.2 0 1 450.20 340.06
  C 441.42 337.78 432.79 334.54 423.38 335.94
  Z"
/>
<path fill="#19304e" d="
  M 175.37 338.87
  Q 165.97 340.14 153.07 344.42
  Q 152.66 344.55 152.41 344.44
  Q 151.98 344.26 152.13 343.70
  A 0.84 0.82 89.5 0 1 152.70 343.11
  C 161.90 340.26 171.01 337.22 180.97 336.81
  C 189.56 336.45 199.78 338.13 208.99 339.18
  A 0.52 0.51 10.4 0 1 209.43 339.81
  L 209.35 340.16
  Q 209.23 340.64 208.74 340.59
  C 197.66 339.60 186.87 337.33 175.37 338.87
  Z"
/>
<path fill="#19304e" d="
  M 104.62 338.87
  Q 96.68 339.84 83.18 344.29
  Q 82.59 344.49 82.32 344.30
  Q 82.09 344.13 82.05 343.78
  Q 81.98 343.26 82.49 343.11
  C 91.78 340.28 100.79 336.95 110.87 337.02
  C 116.67 337.06 123.13 338.65 129.16 339.85
  Q 129.57 339.93 129.77 340.15
  Q 130.04 340.47 129.99 340.84
  A 0.71 0.70 9.1 0 1 129.15 341.44
  C 120.91 339.70 113.30 337.82 104.62 338.87
  Z"
/>
<path fill="#19304e" d="
  M 292.33 340.25
  C 276.28 337.73 260.06 339.36 244.70 341.10
  A 0.60 0.59 -10.5 0 1 244.05 340.66
  Q 243.91 340.14 244.10 339.84
  Q 244.24 339.60 244.67 339.56
  Q 258.55 337.98 272.50 337.43
  C 287.07 336.85 301.38 340.41 316.00 343.24
  Q 319.61 343.93 323.09 345.11
  Q 323.60 345.28 323.54 345.81
  Q 323.52 345.94 323.51 346.07
  A 0.47 0.46 9.4 0 1 322.93 346.48
  Q 307.76 342.68 292.33 340.25
  Z"
/>
<path fill="#19304e" d="
  M 145.24 347.81
  C 132.84 345.56 121.72 342.90 109.37 347.52
  A 0.63 0.63 0.0 0 1 108.57 346.69
  Q 108.94 345.77 110.20 345.39
  C 122.39 341.74 133.36 343.81 146.03 346.56
  A 0.47 0.47 0.0 0 1 146.38 347.18
  Q 146.09 347.96 145.24 347.81
  Z"
/>
<path fill="#1c5aa1" d="
  M 107.82 353.64
  Q 90.52 353.47 73.49 350.19
  Q 90.54 352.63 107.82 353.64
  Z"
/>
<path fill="#1c5aa1" d="
  M 413.93 350.64
  L 374.03 350.67
  Q 393.98 349.87 413.93 350.64
  Z"
/>
<path fill="#1c5aa1" d="
  M 436.76 351.63
  L 420.52 350.92
  L 436.76 351.63
  Z"
/>
<path fill="#1c5aa1" d="
  M 454.25 352.38
  L 445.51 352.09
  L 454.25 352.38
  Z"
/>
<path fill="#1c5aa1" d="
  M 313.28 352.17
  L 266.28 352.80
  Q 268.50 352.49 270.75 352.43
  Q 292.01 351.84 313.28 352.17
  Z"
/>
<path fill="#1c5aa1" d="
  M 260.97 352.94
  L 235.52 353.66
  L 260.97 352.94
  Z"
/>
<path fill="#1c5aa1" d="
  M 227.98 353.94
  L 208.26 354.65
  L 227.98 353.94
  Z"
/>
<path fill="#1c5aa1" d="
  M 192.73 354.62
  L 133.04 354.12
  L 192.73 354.62
  Z"
/>
<path fill="#f6e734" d="
  M 143.80 378.74
  C 149.18 380.39 154.30 383.37 159.98 385.06
  Q 163.40 386.08 165.91 387.12
  Q 186.49 395.59 197.01 399.80
  C 198.82 400.52 201.00 400.92 202.81 401.65
  Q 218.61 408.07 234.41 414.49
  C 235.83 415.07 237.62 415.32 238.92 415.85
  Q 251.91 421.14 264.92 426.37
  Q 265.39 426.55 265.84 426.34
  Q 276.38 421.32 286.86 416.43
  C 288.56 415.63 290.47 415.19 292.02 414.45
  Q 305.90 407.86 319.89 401.49
  C 321.60 400.71 323.42 400.19 324.99 399.43
  Q 347.34 388.59 369.60 378.92
  Q 371.44 378.12 369.72 379.16
  C 363.53 382.93 355.77 386.27 350.28 389.24
  Q 340.23 394.68 330.15 400.08
  C 329.53 400.41 328.40 400.52 327.69 400.91
  Q 314.92 407.97 301.96 414.67
  C 290.05 420.82 278.43 427.38 266.33 433.20
  Q 265.88 433.42 265.42 433.24
  Q 256.16 429.64 247.16 425.50
  C 231.41 418.24 218.58 412.73 204.37 406.17
  C 190.57 399.80 175.42 393.50 161.19 386.54
  C 159.68 385.80 157.86 385.66 156.37 384.93
  Q 149.58 381.64 143.70 379.00
  Q 141.70 378.10 143.80 378.74
  Z"
/>
</svg>
